<?xml version="1.0" encoding="utf-8"?>
<!-- Generator: Adobe Illustrator 19.1.0, SVG Export Plug-In . SVG Version: 6.00 Build 0)  -->
<svg version="1.1" id="Layer_1" xmlns="http://www.w3.org/2000/svg" xmlns:xlink="http://www.w3.org/1999/xlink" x="0px" y="0px"
	 width="458.8670044px" height="102.2259979px" viewBox="224 -46.2259979 458.8670044 102.2259979"
	 style="enable-background:new 224 -46.2259979 458.8670044 102.2259979;" xml:space="preserve">
<style type="text/css">
	.st0{fill:#97999B;}
	.st1{fill:#00A3E0;}
</style>
<g id="Crown_152_">
	<g>
		<path class="st0" d="M235.3059998-41.730999c0.1820068-0.0289993,0.3589935-0.0859985,0.5220032-0.1730003l0.0970001-0.0599976
			l0.0039978-0.0079994l0.022995-0.012001l0.0039978-0.0040016l0.0169983-0.0089989
			c0.0100098-0.0139999,0.0230103-0.026001,0.0390015-0.0349998c0.0480042-0.0530014,0.0980072-0.1040001,0.1490021-0.1559982
			l0.0050049-0.0090027l0.026001-0.026001l0.0039978-0.0079994c0.0050049-0.0039978,0.0099945-0.0109978,0.0139923-0.0169983
			c0.0020142-0.0050011,0.0040131-0.0089989,0.0080109-0.012001l0.0070038-0.0060005l0.0019989-0.0079994l0.0069885-0.0050011
			c0.0470123-0.0699997,0.0890045-0.1439972,0.1240082-0.218998l0.0070038-0.0089989
			c0.0579987-0.1420021,0.0939941-0.295002,0.1039886-0.4480019l0.0090027-0.0349998v-0.1459999l-0.0090027-0.0349998
			c-0.019989-0.2190018-0.0889893-0.4309998-0.2050018-0.6170006c-0.0039978-0.0050011-0.0089874-0.0089989-0.0139923-0.0139999
			l-0.003006-0.0089989c-0.0379944-0.0569992-0.0809937-0.1100006-0.1279907-0.1599998
			c-0.0110016-0.0110016-0.0220032-0.0200005-0.0340118-0.0290031l-0.0079956-0.007
			c-0.0180054-0.0139999-0.0330048-0.0269966-0.0480042-0.0439987l-0.0079956-0.0050011l-0.0110016-0.0119972L236-44.072998
			l-0.0110016-0.012001c-0.1230011-0.0979996-0.2610016-0.1749992-0.4089966-0.2280006
			c-0.022995-0.0149994-0.0440063-0.0329971-0.0619965-0.0549965l-0.0169983-0.026001
			c-0.0140076-0.0359993-0.0230103-0.0740013-0.0270081-0.1119995c-0.0019989-0.0230026-0.0019989-0.0440025-0.0019989-0.0670013
			l-0.0019989-0.0110016v-0.0139999l-0.0019989-0.0119972c-0.0070038-0.0610008-0.0140076-0.1230011-0.0209961-0.1830025
			l-0.0019989-0.0119972c0.0019989-0.0139999,0.0029907-0.0290031,0.0019989-0.0419998l0.0110016-0.0290031l0.0139923-0.0149994
			c0.0139923-0.007,0.0279999-0.0119972,0.0429993-0.0169983h0.0390015
			c0.0780029,0.0169983,0.1560059,0.0319977,0.2350006,0.0470009h0.0319977l0.0339966,0.0059967h0.0279999l0.0130005,0.0030022
			h0.1110077l0.0110016-0.0030022c0.0389862,0,0.0789948-0.0059967,0.1159973-0.0209999
			c0.0429993-0.0179977,0.0820007-0.0449982,0.1139984-0.0789986c0.0309906-0.0419998,0.0509949-0.0919991,0.0599976-0.144001
			v-0.0739975c-0.0099945-0.0670013-0.0399933-0.1270027-0.0890045-0.1739998l-0.0049896-0.0020027l-0.0050049-0.007
			c-0.0220032-0.0149994-0.0449982-0.0270004-0.0699921-0.0379982c-0.1790009-0.0359993-0.3660126-0.0219994-0.5420074,0.0379982
			h-0.026001l-0.0099945,0.0030022c-0.0220032-0.0030022-0.0429993-0.0079994-0.0640106-0.0149994l-0.019989-0.0180016
			l-0.0090027-0.0139999l-0.0079956-0.0330009c0.0549927-0.2269974,0.0479889-0.4580002-0.026001-0.6730003l-0.0420074-0.0449982
			c-0.0299988-0.0240021-0.0610046-0.0440025-0.0950012-0.0610008l-0.0509949-0.0139999l-0.072998,0.0019989l-0.0510101,0.0139999
			l-0.0419922,0.0240021l-0.0110016,0.0139999l-0.0099945,0.0029984c-0.0330048,0.0330009-0.0590057,0.0709991-0.07901,0.1140022
			c-0.0249939,0.0639992-0.0370026,0.132-0.0359955,0.1999969l0.0019989,0.012001
			c0.0010071,0.026001,0.0019989,0.0509987,0.0039978,0.0769997l0.0019989,0.012001v0.0169983l0.0050049,0.0139999
			c0.0180054,0.1010017,0.0310059,0.2060013,0.0359955,0.3090019c-0.0039978,0.0180016-0.0110016,0.0349998-0.0200043,0.0509987
			l-0.0099945,0.007l-0.0119934,0.0050011l-0.0310059,0.0040016l-0.0039978-0.0020027h-0.026001l-0.0130005-0.0029984h-0.0139923
			c-0.1350098-0.0359993-0.2730103-0.0559998-0.4120026-0.0610008c-0.0550079,0.0079994-0.1070099,0.0240021-0.1569977,0.0470009
			l-0.053009,0.0349998c-0.0039978,0.0060005-0.0099945,0.0109978-0.0149994,0.0149994l-0.0029907,0.0040016l-0.0180054,0.0139999
			l-0.003006,0.0079994l-0.0069885,0.0039978c-0.0170135,0.0240021-0.0299988,0.0500031-0.0390015,0.0769997
			c-0.0100098,0.038002-0.0130005,0.0760002-0.0100098,0.1150017c0.0039978,0.0349998,0.0140076,0.0699997,0.029007,0.1010017
			c0.0179901,0.0299988,0.0399933,0.0589981,0.0659943,0.0830002l0.0400085,0.0299988
			c0.0529938,0.0229988,0.1100006,0.0359993,0.1669922,0.0389977c0.0160065-0.0019989,0.0319977-0.0019989,0.0480042-0.0019989
			l0.0350037-0.007c0.1230011-0.0089989,0.246994-0.0289993,0.3669891-0.0610008h0.0480042
			c0.0169983,0.0060005,0.0330048,0.0139999,0.0480042,0.0230026L235-44.8759995h0.0019989l0.0120087,0.0270004l0.0069885,0.0510025
			l-0.0019989,0.0089989v0.0299988l-0.0029907,0.0130005c-0.0100098,0.1360016-0.0370026,0.2719994-0.0800018,0.3990021
			l-0.0190125,0.0239983c-0.1289978,0.0569992-0.2539978,0.1259995-0.3729858,0.2039986l-0.0020142,0.0040016l-0.0339966,0.0209999
			l-0.0049896,0.0060005c-0.0090027,0.0060005-0.0180054,0.012001-0.0270081,0.0179977l-0.0059967,0.0139999l-0.0079956,0.0020027
			c-0.0550079,0.0480003-0.105011,0.1009979-0.1490021,0.1590004l-0.0080109,0.0060005l-0.0039978,0.0079994l-0.0090027,0.0089989
			c-0.0039978,0.007-0.0079956,0.0139999-0.0129852,0.0200005l-0.0050049,0.0039978l-0.0019989,0.0060005
			c-0.0429993,0.0590019-0.0810089,0.1210022-0.1130066,0.1860008l-0.0019989,0.0089989
			c-0.0849915,0.1710014-0.1349945,0.3590012-0.1470032,0.5489998l-0.0059967,0.012001
			c-0.0019989,0.2859993,0.0810089,0.5670013,0.2340088,0.8090019l0.0049896,0.0049973l0.0090027,0.0170021l0.0099945,0.0039978
			l0.0020142,0.0090027c0.0039978,0.0060005,0.0079956,0.0139999,0.0109863,0.0200005l0.0050049,0.0039978
			c0.0110016,0.0149994,0.022995,0.0320015,0.0339966,0.0470009c0.0080109,0.0079994,0.0149994,0.0169983,0.0210114,0.026001
			l0.0079956,0.0039978l0.0599976,0.0670013c0.0039978,0.0029984,0.0079956,0.0060005,0.0120087,0.0089989l0.0089874,0.0009995
			l0.0059967,0.0079994l0.0080109,0.0080032c0.0049896,0.0029984,0.0099945,0.0059967,0.0139923,0.0089989
			c0.0050049,0.0060005,0.0110016,0.012001,0.0169983,0.0169983l0.0070038,0.0090027
			c0.0039978,0.0029984,0.0070038,0.0039978,0.0110016,0.007l0.0070038,0.0019989
			c0.0059967,0.0060005,0.0130005,0.0139999,0.0189972,0.0200005l0.0070038,0.0039978l0.0049896,0.0020027
			C234.7539978-41.8139992,235.0249939-41.7289963,235.3059998-41.730999"/>
		<path class="st0" d="M246.4759979-34.6039963c0-0.0300026-0.0009918-0.0590019-0.0019989-0.0890007
			c-0.0200043-0.1030006-0.0570068-0.2029991-0.1100006-0.295002l-0.0079956-0.0059967
			c-0.0070038-0.0180016-0.0180054-0.0330009-0.0319977-0.0470009l-0.0039978-0.0110016l-0.0110016-0.0139999l-0.0050049-0.0089989
			l-0.0139923-0.012001h-0.0040131l-0.0449982-0.0550003l-0.0079956-0.0059967l-0.0299988-0.0320015l-0.0100098-0.0060005
			c-0.0069885-0.0079994-0.0139923-0.0149994-0.0219879-0.0209999l-0.0579987-0.0419998
			c-0.0270081-0.0109978-0.052002-0.0239983-0.076004-0.0410004l-0.0659943-0.0229988l-0.1010132-0.0200005h-0.0139923
			l-0.0169983-0.0050011l-0.1230011-0.0009995l-0.0650024,0.0110016h-0.0270081l-0.0549927,0.0149994
			c-0.0599976,0.0229988-0.1179962,0.0509987-0.1719971,0.0849991c-0.0630035,0.0509987-0.1220093,0.105999-0.177002,0.1650009
			l-0.0050049,0.0089989l-0.0439911,0.0470009l-0.0040131,0.012001l-0.0259857,0.0299988l-0.0040131,0.0089989l-0.022995,0.0209999
			l-0.0039978,0.0089989l-0.0119934,0.012001c-0.0670013,0.1010017-0.1260071,0.2070007-0.1760101,0.3180008
			c-0.1879883,0.4370003-0.2939911,0.8959999-0.4189911,1.3509979l-0.0160065,0.0290031l-0.0140076,0.0119972l-0.0130005,0.0040016
			l-0.0119934-0.0030022c-0.0090027-0.0079994-0.0169983-0.0149994-0.0240021-0.0229988
			c-0.026001-0.0760002-0.052002-0.151001-0.0789948-0.2270012l-0.0169983-0.0259972l-0.0039978-0.0180016l-0.0400085-0.0709991
			l-0.0079956-0.0079994l-0.0039978-0.0110016c-0.0380096-0.0569992-0.0810089-0.1100006-0.1289978-0.1599998l-0.0130005-0.0050011
			l-0.0299988-0.0309982l-0.0090027-0.0050011l-0.0039978-0.0040016l-0.0110016-0.0039978l-0.0080109-0.012001l-0.0619965-0.0419998
			l-0.1009979-0.0469971c-0.0579987-0.0150032-0.1179962-0.0290031-0.1779938-0.038002h-0.0299988l-0.0140076-0.0039978h-0.022995
			l-0.0140076,0.0039978H243.625l-0.0140076,0.0050011c-0.0369873,0-0.072998,0.0009995-0.1099854,0.0009995
			c-0.076004,0.0229988-0.1470032,0.0559998-0.2120056,0.1010017l-0.0039978,0.0069962l-0.0169983,0.0090027l-0.0100098,0.0149994
			l-0.0090027,0.0039978l-0.0189972,0.0210037l-0.0110016,0.0059967l-0.0039978,0.0080032l-0.0049896,0.0029984
			l-0.0920105,0.0950012l-0.0039978,0.012001c-0.0349884,0.0410004-0.0639954,0.0849991-0.0890045,0.1319962
			c-0.0239868,0.0490036-0.0419922,0.1000023-0.0539856,0.1529999c-0.0010071,0.0230026-0.0040131,0.045002-0.0100098,0.0670013
			v0.0510025l-0.0019989,0.0139999c0,0.0649986,0.0009918,0.1289978,0.0019989,0.1940002l0.0019989,0.0139999v0.0199966
			c0.0169983,0.1120033,0.0570068,0.2180023,0.1170044,0.3150024l0.0070038,0.0039978l0.0110016,0.0240021
			c0.0209961,0.0329971,0.0439911,0.0639992,0.0699921,0.093998l0.0110016,0.0079994
			c0.0390015,0.0350037,0.0809937,0.0680008,0.125,0.0979996c0.0180054,0.0060005,0.0350037,0.0150032,0.0509949,0.026001
			c0.0970001,0.0390015,0.1980133,0.0660019,0.3010101,0.0790024h0.0800018
			c0.0389862-0.0019989,0.0779877-0.0090027,0.1149902-0.0200005h0.0299988l0.0170135-0.0089989h0.0549927l0.0319977,0.0179977
			l0.0209961,0.0240021l0.0120087,0.0209961l0.0149994,0.0590019l-0.0039978,0.0890007
			c-0.0360107,0.1599998-0.0850067,0.3179989-0.1470032,0.4709988l-0.0079956,0.0119991
			c-0.0360107,0.085001-0.07901,0.1680012-0.1269989,0.2470016l-0.0050049,0.0049992l-0.0359955,0.0570011l-0.0040131,0.0049992
			l-0.0049896,0.0119991l-0.0070038,0.0060005l-0.0119934,0.0200005l-0.0050049,0.0060005l-0.0050049,0.0109978
			l-0.0089874,0.0090008c-0.0319977,0.0480003-0.0680084,0.0939999-0.1080017,0.1359997l-0.0100098,0.0079994L243.5-31.1209984
			l-0.0119934,0.0060005l-0.0359955,0.0410004l-0.0090027,0.0049992l-0.0120087,0.0170002l-0.0109863,0.0079994
			l-0.0050049,0.0040016l-0.0090027,0.0039978l-0.0079956,0.0090008l-0.0189972,0.0119991l-0.0050049,0.0060005
			c-0.0209961,0.0149994-0.0419922,0.0319996-0.0610046,0.0499992l-0.0089874,0.0030022l-0.0070038,0.0059986l-0.0070038,0.0080013
			l-0.0050049,0.0079994l-0.0109863,0.0039997l-0.0050201,0.0039997c-0.2559967,0.1879997-0.5529938,0.3070011-0.8679962,0.3500023
			h-0.3659973c-0.2310028-0.0330009-0.4500122-0.1170006-0.6459961-0.2440014l-0.0020142-0.0049992l-0.0090027-0.0060005
			l-0.0049896-0.0039997l-0.0420074-0.0290012l-0.0049896-0.0089989c-0.0070038-0.0060005-0.0160065-0.012001-0.0250092-0.0149994
			l-0.0039978-0.0060005l-0.0529938-0.0380001l-0.0039978-0.0039997l-0.0299988-0.0209999
			c-0.006012-0.0060005-0.0130005-0.0139999-0.0189972-0.0200005l-0.0210114-0.0139999
			c-0.0049896-0.0050011-0.0110016-0.0109997-0.0179901-0.0149994l-0.0039978-0.0060005l-0.0100098-0.0039997
			c-0.0050049-0.0039997-0.0090027-0.0090008-0.0139923-0.0119991l-0.0070038-0.0090008l-0.0110016-0.0039997
			c-0.0050049-0.0039997-0.0090027-0.0089989-0.0139923-0.012001l-0.0050049-0.0079994
			c-0.0460052-0.0450001-0.0919952-0.0919991-0.1380005-0.1389999l-0.0050049-0.0089989l-0.0189972-0.0209999l-0.0039978-0.007
			l-0.0200043-0.0180016l-0.0019989-0.0089989l-0.0090027-0.012001l-0.0039978-0.0119991l-0.0049896-0.0020008l-0.0050049-0.0119991
			c-0.0059967-0.0059986-0.0110016-0.0119991-0.0169983-0.0179996c-0.0140076-0.0179996-0.0270081-0.0380001-0.0400085-0.0579987
			l-0.0090027-0.0080032c-0.0390015-0.0569992-0.0740051-0.1149998-0.1080017-0.1749992l-0.1100006-0.2480011l-0.0099945-0.0149994
			c-0.1069946-0.2590027-0.1719971-0.531002-0.197998-0.8090019c-0.0010071-0.0270004,0-0.0529976,0.0049896-0.079998
			l0.0140076-0.0349998l0.0149994-0.0150032l0.0139923-0.0059967h0.0180054l0.0420074,0.012001l0.0529938,0.0319977
			l0.0019989,0.0039978l0.022995,0.0170021l0.0040131,0.0040016l0.0089874,0.0059967l0.0040131,0.0060005l0.0079956,0.0040016
			l0.0069885,0.0119972l0.0110016,0.0030022l0.0040131,0.0059967c0.0069885,0.0060005,0.0139923,0.012001,0.0209961,0.0170021
			l0.0099945,0.0109978c0.0550079,0.0360031,0.1080017,0.0730019,0.1609955,0.1120033
			c0.0970001,0.0529976,0.1990051,0.0949974,0.3050079,0.125c0.0429993,0.0109978,0.0869904,0.0149994,0.1320038,0.0139999
			L241.2599945-32.375h0.0980072l0.144989-0.0229988c0.0640106-0.0200005,0.125-0.0440025,0.1840057-0.0740013l0.072998-0.0509987
			l0.0050049-0.0079994l0.0110016-0.0060005c0.0279999-0.0229988,0.0540009-0.0480003,0.0759888-0.0760002l0.0039978-0.0090027
			l0.0270081-0.0289993l0.0070038-0.012001c0.0509949-0.0759964,0.0939941-0.1569977,0.1259918-0.2439995l0.0240021-0.0909996
			v-0.0349998l0.0019989-0.0119972v-0.0559998L242.0469971-33.118v-0.0730019l-0.0050049-0.0169983v-0.0559998l-0.0019989-0.0149994
			v-0.0230026c-0.0139923-0.1089973-0.052002-0.2129974-0.1139984-0.303997
			c-0.0350037-0.0410004-0.0700073-0.0820007-0.1060028-0.1230011l-0.0110016-0.0040016l-0.0329895-0.0379982l-0.0080109-0.0050011
			l-0.0110016-0.0139999c-0.0650024-0.0509987-0.1369934-0.0919991-0.2139893-0.1209984l-0.0870056-0.0150032h-0.0400085
			l-0.0149841-0.0059967c-0.0820007-0.0030022-0.1630096,0-0.2440033,0.0079994
			c-0.1030121,0.0229988-0.2030029,0.0569992-0.298996,0.1010017l-0.0120087,0.0089989
			c-0.1089935,0.0669975-0.2160034,0.1349983-0.3220062,0.2059975l-0.0509949,0.0210037l-0.0220032-0.0060005l-0.0139923-0.0089989
			l-0.0019989-0.0090027l0.0019989-0.0289993l0.0359955-0.0680008l0.0079956-0.0049973l0.0020142-0.0090027l0.0069885-0.0049973
			l0.0050049-0.0090027c0.1470032-0.2089996,0.2440033-0.447998,0.2850037-0.6989975v-0.0200043l0.0069885-0.0469971
			c0.0020142-0.0559998-0.0009918-0.1100006-0.0090027-0.1660004l-0.0049896-0.0209999l-0.0019989-0.0320015
			c-0.0169983-0.0950012-0.0490112-0.185997-0.0960083-0.2709999l-0.0039978-0.0060005l-0.0050049-0.0119972
			c-0.0309906-0.0499992-0.0679932-0.0940018-0.1109924-0.1350021l-0.0099945-0.0060005l-0.030014-0.0359993l-0.0109863-0.0060005
			c-0.0350037-0.0319977-0.072998-0.0589981-0.1130066-0.0830002l-0.0110016-0.0039978l-0.0139923-0.012001
			c-0.0390015-0.0179977-0.0780029-0.0329971-0.1190033-0.0469971l-0.0970001-0.0170021h-0.0160065l-0.0139923-0.0040016
			c-0.0620117-0.0029984-0.1240082,0-0.1860046,0.0070038l-0.1130066,0.0299988
			c-0.0599976,0.0289993-0.1179962,0.0620003-0.173996,0.0970001c-0.0039978,0.0039978-0.0090027,0.0089989-0.0139923,0.0139999
			c-0.0050049,0.0029984-0.0110016,0.0039978-0.0169983,0.007c-0.0330048,0.0349998-0.0640106,0.072998-0.0940094,0.1099968
			l-0.0049896,0.012001l-0.0090027,0.0090027l-0.0059967,0.0089989l-0.0070038,0.007
			c-0.0839996,0.1199989-0.1320038,0.2599983-0.1399994,0.4069977l-0.0050049,0.0139999V-34.507L239.3549957-34.493v0.0379982
			c0.0449982,0.2820015,0.1569977,0.5490036,0.3179932,0.7840042l0.0100098,0.0299988l0.0019989,0.0419998l-0.0070038,0.0169983
			h-0.003006l-0.0110016,0.0090027l-0.0179901,0.0029984l-0.0240021-0.0079994
			c-0.121994-0.0800018-0.2429962-0.1599998-0.3630066-0.2439995c-0.0849915-0.038002-0.17099-0.071003-0.2589874-0.1010017
			l-0.1470032-0.0289993h-0.0230103l-0.0139923-0.0030022h-0.0980072c-0.0509949,0.0060005-0.1009979,0.0170021-0.1499939,0.0320015
			c-0.072998,0.0330009-0.1419983,0.0740013-0.2050018,0.1229973l-0.0070038,0.0090027l-0.0109863,0.0049973l-0.0040131,0.0090027
			l-0.0099945,0.0049973c-0.0140076,0.0150032-0.029007,0.0300026-0.0449982,0.045002l-0.0079956,0.012001l-0.0340118,0.0349998
			l-0.0019989,0.012001l-0.0090027,0.0059967l-0.0069885,0.012001l-0.0050049,0.0039978l-0.0039978,0.0090027
			c-0.076004,0.118-0.1240082,0.2529984-0.1399994,0.3919983v0.0390015l-0.0019989,0.0130005v0.0379982l0.0019989,0.0149994
			v0.0390015c0.0079956,0.0620003,0.0209961,0.1229973,0.0390015,0.1819992
			c0.0449982,0.1290016,0.1149902,0.2469978,0.2070007,0.3460007c0.0599976,0.0470009,0.125,0.0880013,0.1929932,0.1229973
			c0.0639954,0.026001,0.1289978,0.0440025,0.1970062,0.0559998c0.0749969,0.0030022,0.1499939-0.0019989,0.223999-0.0119972
			l0.0359955-0.0089989l0.0480042-0.0050011c0.125-0.0300026,0.2440033-0.0790024,0.3540039-0.144001l0.0259857-0.0200005
			c0.0590057-0.0289993,0.1150055-0.0639992,0.1670074-0.1030006l0.0050049-0.0079994l0.1009979-0.0699997l0.0370026-0.0149994
			l0.0349884,0.0029984l0.0200043,0.012001c0.0050049,0.0109978,0.0110016,0.0209999,0.0169983,0.0320015l0.0110016,0.0449982
			v0.0470009l-0.0070038,0.0139999c-0.0299988,0.3599968-0.1429901,0.7129993-0.3280029,1.0239983l-0.0059967,0.0080013
			l-0.0179901,0.032999l-0.0050049,0.0040016l-0.0039978,0.0109978l-0.0110016,0.0080013
			c-0.0090027,0.0139999-0.0180054,0.0290012-0.0269928,0.0419998l-0.0050049,0.0039997l-0.0120087,0.0240002
			c-0.0110016,0.0119991-0.0209961,0.0259991-0.0289917,0.0389996l-0.0039978,0.0089989l-0.0070038,0.0060005l-0.0050049,0.0089989
			l-0.0039978,0.0050011c-0.0119934,0.0200005-0.0249939,0.0389996-0.0390015,0.059l-0.0119934,0.0139999l-0.0039978,0.0090008
			c-0.0390015,0.0509987-0.0839996,0.0999985-0.131012,0.1439991l-0.0159912,0.0200005l-0.0099945,0.0059986
			c-0.0050049,0.0040016-0.0110016,0.0110016-0.0170135,0.0150013c-0.0079956,0.0109997-0.0179901,0.0209999-0.0289917,0.0300007
			l-0.0110016,0.0039978c-0.0039978,0.0040016-0.0079956,0.0080013-0.0110016,0.012001l-0.0070038,0.0039997l-0.0099945,0.0049992
			l-0.0019989,0.0090008l-0.0120087,0.0049992l-0.0039978,0.0080013l-0.0079956,0.0049992l-0.0070038,0.007
			c-0.0039978,0.0030022-0.0089874,0.0060005-0.0139923,0.0090008c-0.0039978,0.0039997-0.0079956,0.0080013-0.0110016,0.0119991
			l-0.0110016,0.0040016l-0.0059967,0.0140076c-0.0049896,0.0039978-0.0099945,0.0109978-0.0139923,0.0149994l-0.0100098,0.0019989
			l-0.0039978,0.0060005c-0.0130005,0.0089989-0.0249939,0.0200005-0.0359955,0.0299988l-0.0090027,0.0050011l-0.0050049,0.007
			c-0.2599945,0.1850014-0.5559998,0.316-0.8709869,0.3649998h-0.0420074l-0.0149994,0.0039997h-0.0379944l-0.0130005,0.0060005
			h-0.0380096l-0.0410004,0.0079994h-0.0240021l-0.0139923,0.0039997h-0.022995l-0.0160065,0.0030003h-0.0979919
			l-0.0170135-0.0030003h-0.0249939l-0.0379944-0.0090008h-0.0220032l-0.0440063-0.0089989h-0.022995l-0.0140076-0.0039997
			h-0.0249939l-0.0419922-0.0080013h-0.0210114c-0.0789948-0.0149994-0.1579895-0.032999-0.2359924-0.0539989l-0.026001-0.0119991
			c-0.1170044-0.0360012-0.2299957-0.0860023-0.3359985-0.1480007l-0.0090027-0.0059986l-0.022995-0.0090008
			c-0.0670013-0.0410004-0.1320038-0.0830002-0.1970062-0.1260014c-0.0269928-0.0209999-0.0529938-0.0419998-0.0809937-0.0639992
			l-0.0080109-0.0089989l-0.0220032-0.012001c-0.0839844-0.0799999-0.1679993-0.1599998-0.2509918-0.2420006l-0.0050049-0.0139999
			l-0.0390015-0.0379982l-0.0039978-0.012001c-0.0179901-0.0209999-0.0349884-0.0439987-0.0509949-0.0670013l-0.0079956-0.0059986
			c-0.0120087-0.0150013-0.0230103-0.0319996-0.0319977-0.0489998l-0.0070038-0.0039997l-0.0019989-0.0089989l-0.0100098-0.012001
			c-0.0549927-0.0909996-0.1069946-0.1829987-0.1589966-0.2749996l-0.0180054-0.046999l-0.0109863-0.0139999
			c-0.0900116-0.1949997-0.1500092-0.4020004-0.178009-0.6140022v-0.0349998l-0.0050049-0.0200005
			c-0.0009918-0.0270004-0.0019989-0.0529976-0.0019989-0.079998l0.0080109-0.0480003l0.0110016-0.0209999l0.0099945-0.0080032
			l0.026001-0.0089989l0.0240021,0.0020027c0.1989899,0.1269989,0.4160004,0.223999,0.6429901,0.2869987l0.0510101,0.0029984
			l0.0119934,0.0060005h0.053009c0.0859985-0.0110016,0.1699982-0.0289993,0.2529907-0.0559998
			c0.0400085-0.0179977,0.07901-0.0390015,0.1170044-0.0600014l0.0050049-0.0060005l0.0389862-0.0259972l0.0040131-0.0060005
			c0.0039978-0.0029984,0.0079956-0.0079994,0.0119934-0.012001l0.0090027-0.0039978
			c0.0049896-0.0060005,0.0110016-0.012001,0.0169983-0.0170021c0.0070038-0.0029984,0.0139923-0.0079994,0.0200043-0.0119972
			l0.0650024-0.0730019l0.0019989-0.0089989l0.0139923-0.0149994l0.0050049-0.0090027l0.0079956-0.0079994
			c0.0110016-0.026001,0.026001-0.0480003,0.0429993-0.0699997c0.0299988-0.0620003,0.0540009-0.1290016,0.0720062-0.1949997
			l0.0119934-0.0830002v-0.0550003l0.0039978-0.0170021c0.0019989-0.0709991,0-0.1419983-0.0070038-0.2129974
			c-0.0069885-0.0419998-0.0169983-0.0849991-0.0309906-0.125c-0.0200043-0.0419998-0.0400085-0.0830002-0.0610046-0.1240005
			c-0.0139923-0.0169983-0.0240021-0.0349998-0.0330048-0.0550003l-0.0019989-0.0060005
			c-0.0239868-0.0299988-0.0469971-0.0600014-0.0690002-0.0919991l-0.0069885-0.0029984l-0.0360107-0.038002
			c-0.0039978-0.0029984-0.0089874-0.0060005-0.0139923-0.0089989l-0.0070038-0.0089989
			c-0.0169983-0.0170021-0.0350037-0.0320015-0.0549927-0.045002l-0.0190125-0.0050011l-0.0129852-0.0109978
			c-0.0710144-0.038002-0.1490021-0.0639992-0.2290039-0.0760002h-0.0390015l-0.0140076-0.0050011h-0.0919952l-0.0119934,0.0050011
			h-0.0429993c-0.1060028,0.0229988-0.2089996,0.0540009-0.3090057,0.0970001
			c-0.0209961,0.0139999-0.0420074,0.026001-0.0639954,0.0389977l-0.0090027,0.0030022
			c-0.0820007,0.0499992-0.1640015,0.1029968-0.2440033,0.1569977l-0.0119934,0.0060005l-0.0140076,0.0109978l-0.0449982,0.0180016
			h-0.029007l-0.0169983-0.007l-0.0070038-0.0149994v-0.0410004l0.0130005-0.0600014
			c0.1180115-0.2179985,0.2060089-0.4539986,0.2580109-0.6949997l0.0019989-0.045002l0.0039978-0.0169983
			c0.0010071-0.0390015,0.0019989-0.0760002,0.0019989-0.1149979l-0.0019989-0.0139999v-0.0620041
			c-0.0200043-0.1819992-0.0960083-0.3509979-0.2189941-0.4869995l-0.0090027-0.0049973l-0.0120087-0.012001l-0.0110016-0.0060005
			l-0.0039978-0.0039978l-0.0099945-0.0040016l-0.0090027-0.012001l-0.0780029-0.0589981l-0.0189972-0.0050011l-0.0110016-0.0089989
			c-0.0509949-0.0229988-0.1009979-0.0470009-0.1519928-0.0699997l-0.0920105-0.0149994h-0.0249939l-0.0139923-0.0060005h-0.0740051
			l-0.0149994,0.0060005h-0.0299988l-0.0970001,0.0179977c-0.0720062,0.0289993-0.1419983,0.064003-0.2100067,0.1010017
			c-0.0079956,0.0109978-0.0179901,0.0209999-0.0289917,0.0289993l-0.0039978,0.0019989l-0.0090027,0.0079994l-0.0039978,0.0060005
			c-0.0110016,0.0060005-0.0210114,0.0139999-0.0299988,0.0240021l-0.0190125,0.0119972l-0.0599976,0.0680008l-0.0050049,0.0090027
			l-0.0069885,0.0039978l-0.0019989,0.012001l-0.0070038,0.0029984l-0.0039978,0.0110016l-0.0050049,0.0049973
			c-0.0870056,0.1330032-0.1380005,0.2840042-0.1490021,0.4430008c0.0100098,0.3360023,0.1569977,0.6450005,0.298996,0.9459991
			l-0.0019989,0.026001l-0.0119934,0.0209999l-0.0149994,0.012001l-0.0330048,0.0030022
			c-0.0410004-0.0150032-0.0789948-0.0350037-0.1139984-0.0590019l-0.026001-0.0239983l-0.0599976-0.0350037l-0.0359955-0.0289993
			l-0.0140076-0.0049973c-0.1450043-0.0920029-0.3049927-0.1540031-0.4729919-0.1830025h-0.1119995
			c-0.0810089,0.0110016-0.1610107,0.0320015-0.2369995,0.0600014l-0.0839996,0.0569992l-0.0039978,0.0050011l-0.0110016,0.0060005
			l-0.0050049,0.0079994l-0.0070038,0.0030022l-0.0099945,0.0109978l-0.0090027,0.0040016l-0.0079956,0.0109978
			l-0.0130005,0.0040016l-0.0090027,0.0139999l-0.0209961,0.0169983l-0.0019989,0.0039978
			c-0.0210114,0.0230026-0.0420074,0.0470009-0.0610046,0.071003l-0.0039978,0.0039978
			c-0.0079956,0.0150032-0.0160065,0.0290031-0.0240021,0.0440025c-0.0039978,0.0039978-0.0070038,0.0109978-0.0099945,0.0149994
			l-0.0070038,0.0059967c-0.0050049,0.0080032-0.0110016,0.0150032-0.0149994,0.0230026l-0.0050049,0.0059967l-0.0039978,0.0080032
			l-0.0070038,0.0070038l-0.0309906,0.0529976c-0.0120087,0.0320015-0.0240021,0.0639992-0.0330048,0.0950012l-0.0130005,0.079998
			v0.0330009l-0.0039978,0.0139999c-0.0110016,0.1479988,0.0110016,0.2970009,0.0619965,0.4360008
			c0.0359955,0.0880013,0.0879974,0.1679993,0.154007,0.2360001l0.0089874,0.0039978l0.0190125,0.0210037
			c0.0379944,0.0299988,0.0759888,0.0589981,0.1149902,0.0879974c0.0899963,0.0419998,0.1849976,0.0730019,0.2830048,0.0890007
			h0.0410004l0.0119934,0.0060005h0.0319977l0.0110016-0.0060005h0.0390015
			c0.1470032-0.0229988,0.2910004-0.0709991,0.423996-0.1420021l0.0110016-0.0089989
			c0.0370026-0.0200005,0.0750122-0.0410004,0.1119995-0.0610008c0.0420074-0.0359993,0.0910034-0.0639992,0.1440125-0.079998
			l0.0389862,0.0019989l0.0180054,0.012001l0.0189972,0.026001l0.0100098,0.0470009v0.0789986l-0.0100098,0.0559998
			l-0.0069885,0.0180016c-0.0390015,0.2689972-0.128006,0.5299988-0.2600098,0.7689972
			c-0.0370026,0.0559998-0.0709991,0.1150017-0.1040039,0.1739998l-0.0219879,0.0320015l-0.0050049,0.0029984l-0.0039978,0.0090008
			c-0.0700073,0.0979996-0.1480103,0.1890011-0.2340088,0.2740002l-0.0099945,0.0060005l-0.0189972,0.0160007l-0.0070038,0.0049992
			c-0.0050049,0.0050011-0.0099945,0.0110016-0.0149994,0.0150013l-0.0070038,0.0090008l-0.0099945,0.0039978l-0.0039978,0.0040016
			l-0.0120087,0.0079994l-0.0169983,0.0209999l-0.0090027,0.0060005l-0.0099945,0.0109978l-0.0070038,0.0040016
			l-0.0179901,0.0179977l-0.0070038,0.0030022l-0.0189972,0.0259991l-0.0090027,0.0020008l-0.0120087,0.0149994
			c-0.118988,0.0939999-0.25,0.1720009-0.3880005,0.2340012l-0.0119934,0.0109978
			c-0.173996,0.0820007-0.3589935,0.1380005-0.548996,0.1660004h-0.0240021l-0.0910034,0.0180016
			c-0.1499939,0.0109997-0.3029938,0.0050011-0.451004-0.0170002h-0.0259857v-0.0139999h-0.076004
			c-0.2910004-0.059-0.5619965-0.191-0.7969971-0.3710003c-0.0050049-0.0030003-0.0110016-0.007-0.0170135-0.0109997
			c-0.0059967-0.0059986-0.0129852-0.0139999-0.0189972-0.0200005l-0.0399933-0.0269985l-0.0059967-0.0060005l-0.0320129-0.0200005
			l-0.0039978-0.0060005l-0.0089874-0.0039997l-0.0020142-0.0039997c-0.0439911-0.0359993-0.0849915-0.0769997-0.121994-0.1210003
			l-0.0070038-0.0119991l-0.0069885-0.0040016c-0.0480042-0.0529995-0.0950012-0.1040001-0.1420135-0.1569977l-0.0049896-0.0140018
			l-0.0070038-0.0039997l-0.0039978-0.0089989l-0.0039978-0.0050011l-0.0059967-0.0139999
			c-0.0110016-0.0179996-0.0240021-0.0359993-0.0360107-0.0530014l-0.0039978-0.0049992
			c-0.0139923-0.0209999-0.026001-0.0419998-0.0390015-0.0640011l-0.0050049-0.0019989
			c-0.0519867-0.0830002-0.1009979-0.1689987-0.144989-0.257c-0.0950012-0.2010002-0.1620026-0.4160004-0.1970062-0.6350021
			v-0.0329971l-0.0050049-0.0180016c-0.0059967-0.0439987-0.0099945-0.0890007-0.0109863-0.1349983l-0.0040131-0.0170021v-0.0179977
			l0.0040131-0.0139999v-0.0240021l0.0049896-0.0299988l0.0169983-0.0359993h0.0040131l0.0149994-0.0090027h0.0289917
			l0.0359955,0.0090027l0.0600128,0.0379982l0.0039978,0.0079994L230.875-32.6719971l0.0099945,0.0049973l0.0070038,0.0040016
			l0.0039978,0.0079994l0.0100098,0.0080032l0.0039978,0.0019989c0.0559998,0.0389977,0.1139984,0.0769997,0.1719971,0.112999
			c0.1009979,0.0550003,0.2079926,0.0999985,0.3179932,0.1350021l0.0950012,0.0139999h0.0350037l0.0169983,0.0089989h0.0670013
			l0.0149994,0.0029984h0.0410004l0.0160065-0.0029984h0.071991c0.0540009-0.0079994,0.1080017-0.0180016,0.1610107-0.0300026
			c0.0649872-0.0209961,0.125-0.0559998,0.1759949-0.1009979c0.0279999-0.0179977,0.0540009-0.038002,0.0789948-0.0610008
			l0.0340118-0.0410004l0.0039978-0.0079994l0.0049896-0.0060005l0.0610046-0.0999985l0.0090027-0.0209999l0.0099945-0.0139999
			c0.0420074-0.0880013,0.0709991-0.1829987,0.0850067-0.2799988v-0.1100006l-0.0050049-0.0150032v-0.0200005h0.0099945
			l-0.0019989-0.0229988l-0.0130005-0.0149994l-0.0049896-0.0559998l-0.0070038-0.0250015l-0.0019989-0.072998
			c-0.0090027-0.0419998-0.0220032-0.0830002-0.0390015-0.1230011l-0.0650024-0.112999l-0.0070038-0.0030022l-0.0119934-0.0229988
			l-0.0110016-0.0089989l-0.0039978-0.0100021l-0.0079956-0.0089989l-0.0039978-0.0089989
			c-0.0170135-0.0149994-0.0310059-0.0320015-0.0430145-0.0510025l-0.0099945-0.0039978l-0.0359955-0.0410004l-0.0090027-0.0060005
			l-0.0099945-0.0130005l-0.0190125-0.0089989l-0.0049896-0.0079994l-0.0429993-0.0290031
			c-0.0930023-0.0419998-0.1910095-0.0739975-0.2920074-0.0909958c-0.0509949-0.0040016-0.1009979-0.0010033-0.1519928,0.0059967
			c-0.1320038,0.0320015-0.2600098,0.0769997-0.3840027,0.1350021c-0.1119995,0.0739975-0.2220001,0.151001-0.3320007,0.2279968
			l-0.0330048,0.0170021l-0.0220032,0.0019989l-0.0099945-0.0009995l-0.0090027-0.012001l-0.0019989-0.0089989v-0.0359993
			l0.0090027-0.038002c0.1629944-0.2539978,0.2819977-0.5449982,0.3240051-0.843998v-0.0849991
			c-0.0140076-0.076004-0.0320129-0.1500015-0.0510101-0.2240028c-0.026001-0.0740013-0.0589905-0.144001-0.098999-0.211998
			c-0.0299988-0.0470009-0.0659943-0.0890007-0.1080017-0.1270027c-0.0390015-0.0329971-0.0789948-0.0649986-0.1209869-0.0970001
			l-0.0170135-0.0049973l-0.0130005-0.0089989c-0.0599976-0.0270004-0.1229858-0.0509987-0.1869965-0.071003l-0.0939941-0.0159988
			h-0.0850067c-0.0829926,0.0139999-0.1640015,0.038002-0.2409973,0.0730019
			c-0.0509949,0.0319977-0.098999,0.0659981-0.1450043,0.1030006l-0.0249939,0.0259972l-0.0099945,0.0040016l-0.0070038,0.0109978
			l-0.0110016,0.0090027l-0.0070038,0.0089989l-0.0099945,0.0089989l-0.0050049,0.0079994
			c-0.0090027,0.012001-0.0189972,0.0240021-0.0289917,0.0350037l-0.0070038,0.0109978l-0.0039978,0.0109978l-0.0080109,0.0050011
			l-0.0049896,0.0110016c-0.0370026,0.0499992-0.0670013,0.1040001-0.0910034,0.1619987
			c-0.026001,0.072998-0.0440063,0.1469994-0.0549927,0.223999v0.0299988l-0.0050049,0.0140038v0.156002l0.0050049,0.0149994
			v0.0209999c0.0219879,0.1229973,0.0569916,0.2449989,0.1059875,0.3599968l0.0090027,0.012001l0.0050049,0.0170021
			c0.04599,0.0979996,0.098999,0.1940002,0.1580048,0.2840004c0.0259857,0.0299988,0.0469971,0.0639992,0.0619965,0.0999985
			l0.0099945,0.0320015v0.0200005l-0.0079956,0.012001l-0.0110016,0.0059967l-0.0130005,0.0030022l-0.0449982-0.0200005
			c-0.1940002-0.156002-0.4179993-0.2630005-0.6600037-0.3150024h-0.1419983l-0.0200043-0.0079994l-0.0110016,0.0079994h-0.1319885
			c-0.0410004,0.0080032-0.0810089,0.0170021-0.1200104,0.0300026l-0.0789948,0.0419998l-0.0120087,0.0119972
			c-0.0699921,0.0470009-0.1329956,0.1030006-0.1879883,0.1660004l-0.0039978,0.0130005
			c-0.07901,0.0999985-0.1300049,0.2180023-0.1500092,0.3450012c-0.0009918,0.0270004-0.0039978,0.0559998-0.0090027,0.0830002
			c-0.0059967,0.0999985,0,0.1999969,0.0200043,0.2980003c0.029007,0.0849991,0.0659943,0.1679993,0.1110077,0.2449989
			l0.0089874,0.0089989l0.0040131,0.0110016l0.0099945,0.0109978l0.0050049,0.007l0.0119934,0.0139999l0.0079956,0.012001
			c0.029007,0.0289993,0.0570068,0.0590019,0.0859985,0.0880013l0.0110016,0.0059967l0.0039978,0.0060005l0.0630035,0.0440025
			L228.8820038-32.375c0.076004,0.0240021,0.1539917,0.0419998,0.2350006,0.0510025h0.0930023
			c0.1429901-0.0270004,0.2839966-0.071003,0.4179993-0.1290016l0.0759888-0.0499992L229.7080078-32.507l0.0439911-0.0299988
			l0.0050049-0.0050011c0.0130005-0.0089989,0.0279999-0.0169983,0.0419922-0.026001l0.0070038-0.0109978l0.0270081-0.0180016
			l0.0069885-0.0089989l0.0189972-0.0119972l0.0040131-0.0040016l0.0109863-0.0079994
			c0.0090027-0.0090027,0.0180054-0.0180016,0.0280151-0.026001l0.0049896-0.0079994l0.0090027-0.0040016
			c0.0070038-0.0049973,0.0119934-0.0109978,0.0169983-0.0169983c0.0140076-0.0110016,0.0270081-0.0209999,0.0420074-0.0320015
			l0.0279999-0.0149994l0.0269928-0.0089989h0.0240021l0.0249939,0.012001
			c0.0080109,0.0199966,0.0140076,0.0389977,0.0190125,0.0589981c0,0.072998-0.0040131,0.1450005-0.0140076,0.2159996
			l-0.0039978,0.0180016c-0.0359955,0.2859993-0.1230011,0.5659981-0.2579956,0.8199978l-0.0040131,0.0139999
			c-0.0149994,0.032999-0.0329895,0.066-0.0529938,0.0970001l-0.0050049,0.0170002l-0.0619965,0.1070004
			c-0.0059967,0.0080013-0.0110016,0.0139999-0.0169983,0.0209999c-0.003006,0.0059986-0.0059967,0.0109997-0.0090027,0.0170002
			l-0.0049896,0.0039997l-0.006012,0.0130005l-0.0099945,0.0080013l-0.0039978,0.0089989l-0.0100098,0.0089989l-0.0039978,0.0090008
			l-0.0049896,0.0049992l-0.0050049,0.012001l-0.0110016,0.0139999l-0.0079956,0.0060005
			c-0.0599976,0.0789986-0.125,0.1539993-0.1950073,0.2249985c-0.0139923,0.0139999-0.0279999,0.026001-0.0419922,0.038002
			c-0.0169983,0.0179977-0.0360107,0.0359993-0.0559998,0.0509987c-0.0050049,0.0030003-0.0090027,0.0060005-0.0140076,0.0079994
			l-0.0099945,0.012001l-0.0090027,0.0040016l-0.0050049,0.0089989l-0.019989,0.012001l-0.0050049,0.0059986l-0.0079956,0.0049992
			l-0.0080109,0.0110016l-0.0529938,0.0379982l-0.0039978,0.0040016c-0.0510101,0.0319977-0.1009979,0.0649986-0.1490021,0.1009979
			c-0.1930084,0.1090012-0.4049988,0.1820011-0.625,0.2130013h-0.0339966l-0.0149994,0.0030003h-0.1679993l-0.0160065-0.0020008
			h-0.0319977c-0.1660004-0.0259991-0.3289948-0.0649986-0.4869995-0.1199989
			c-0.0950012-0.0509987-0.1909943-0.1000004-0.2890015-0.1469994l-0.0240021-0.0170021l-0.0099945-0.0009995l-0.0749969-0.0499992
			l-0.0040131-0.0040016l-0.0189972-0.0089989l-0.0019989-0.0089989l-0.0099945-0.0080013l-0.0019989-0.0030003
			l-0.0240021-0.0129986l-0.0039978-0.0049992l-0.0090027-0.0040016l-0.0050049-0.0099983l-0.0099945-0.0040016
			l-0.0039978-0.0060005l-0.0110016-0.0059986l-0.0070038-0.0080013l-0.0099945-0.0079994l-0.0039978-0.0060005
			l-0.0100098-0.0039978c-0.0110016-0.012001-0.0220032-0.0230007-0.0339966-0.0320015l-0.0090027-0.0019989l-0.0019989-0.0079994
			l-0.0119934-0.0060005l-0.006012-0.0060005l-0.0089874-0.0039997c-0.0370026-0.0349998-0.0730133-0.0710011-0.1060028-0.1089993
			l-0.0039978-0.012001l-0.029007-0.0299988l-0.0050049-0.012001l-0.0139923-0.0130005l-0.0059967-0.0110016l-0.0169983-0.0139999
			l-0.0040131-0.0119991l-0.0130005-0.0119991l-0.0049896-0.012001l-0.0140076-0.012001l-0.0099945-0.0259991l-0.0149994-0.0090008
			l-0.0090027-0.0209999c-0.1629944-0.2479992-0.2799988-0.5239983-0.3320007-0.8170013v-0.072998l0.0090027-0.0419998
			l0.0189972-0.038002l0.022995-0.0139999l0.0460052-0.0119972h0.0180054l0.144989,0.0239983h0.026001l0.0149994,0.0040016
			c0.1119995-0.0020027,0.2230072-0.0229988,0.3280029-0.0639992c0.0570068-0.0320015,0.1119995-0.0680008,0.1630096-0.1090012
			l0.0849915-0.0890007l0.0050049-0.0089989c0.0079956-0.012001,0.0169983-0.0230026,0.0269928-0.0330009l0.0070038-0.012001
			l0.0079956-0.0060005c0.006012-0.0109978,0.0120087-0.0229988,0.0180054-0.0329971l0.0079956-0.0040016l0.0189972-0.0359993
			l0.0040131-0.0039978c0.0089874-0.0240021,0.0219879-0.045002,0.0369873-0.0650024
			c0.0350037-0.0859985,0.0600128-0.1769981,0.0720062-0.2689972v-0.026001l0.0039978-0.0170021
			c-0.0110016-0.1679993-0.0610046-0.3330002-0.1450043-0.4799995l-0.0089874-0.0089989l-0.0050049-0.0089989
			c-0.0270081-0.0390015-0.0590057-0.0760002-0.0950012-0.1090012l-0.0090027-0.0039978l-0.0169983-0.0240021l-0.0079956-0.0060005
			l-0.0059967-0.0060005l-0.0100098-0.0059967l-0.0039978-0.0060005l-0.0110016-0.0040016l-0.0019989-0.0039978
			l-0.0709991-0.0500031c-0.0480042-0.0270004-0.0979919-0.0469971-0.151001-0.0619965l-0.0950012-0.0180016h-0.1640015
			c-0.072998,0.012001-0.144989,0.0320015-0.2139893,0.0610008l-0.0120087,0.0109978l-0.0110016,0.0040016
			c-0.0379944,0.026001-0.0749969,0.0530014-0.1119995,0.079998l-0.0039978,0.0060005l-0.0099945,0.0029984l-0.0080109,0.0110016
			l-0.0099945,0.0059967l-0.0070038,0.0070038l-0.0110016,0.0049973c-0.022995,0.0200005-0.0439911,0.0410004-0.0639954,0.064003
			l-0.0079956,0.0119972l-0.0270081,0.0290031l-0.0039978,0.0089989l-0.0039978,0.0050011
			c-0.071991,0.1319962-0.1309967,0.2709961-0.1759949,0.4139977l-0.0039978,0.0060005L226.0540009-33.118l-0.0079956,0.0040016
			h-0.026001L226-33.1349983c-0.022995-0.045002-0.0410004-0.093998-0.0549927-0.1420021
			c-0.0700073-0.375-0.1840057-0.7409973-0.3220062-1.0970001c-0.0650024-0.1449966-0.1380005-0.2869987-0.2189941-0.4249992
			l-0.0110016-0.0089989l-0.0050049-0.0110016c-0.0659943-0.0819969-0.1380005-0.1589966-0.2120056-0.2329979l-0.0089874-0.0060005
			c-0.006012-0.0059967-0.0130005-0.0109978-0.0190125-0.0169983c-0.1009979-0.0769997-0.2189941-0.1300011-0.3450012-0.1529999
			h-0.019989l-0.0140076-0.0040016h-0.1640015l-0.0149994,0.0040016h-0.0159912l-0.0830078,0.0179977
			c-0.0579987,0.0240021-0.1129913,0.0530014-0.1660004,0.0880013c-0.0110016,0.0089989-0.0220032,0.0170021-0.0339966,0.0229988
			c-0.0079956,0.007-0.0149994,0.0149994-0.0209961,0.0240021l-0.0100098,0.0039978
			c-0.0269928,0.0230026-0.0529938,0.0470009-0.0779877,0.0730019c-0.0070038,0.0089989-0.0140076,0.0179977-0.0210114,0.0259972
			c-0.0299988,0.0510025-0.0609894,0.1040039-0.0909882,0.156002c-0.0360107,0.0880013-0.0580139,0.1800003-0.0670013,0.2749977
			c0,0.0300026-0.0010071,0.0590019-0.0019989,0.0890007l0.0019989,0.0139999
			c0.0429993,0.5540009,0.4389954,1.0769997,0.7159882,1.5460014l0.0080109,0.0200005
			c0.1119995,0.2039986,0.2220001,0.4080009,0.3309937,0.6140022l0.0070038,0.0209961
			c0.0569916,0.1150017,0.1139984,0.2290039,0.17099,0.3430023l0.0090027,0.0139999l0.0319977,0.0799999l0.0190125,0.0290012
			c0.1539917,0.3339996,0.3059998,0.6689987,0.4509888,1.0079994l0.0019989,0.0209999
			c0.0350037,0.0790005,0.0670013,0.1569996,0.0960083,0.2390003l0.0159912,0.0270004
			c0.4350128,1.0900002,0.6500092,2.2110004,0.8350067,3.3649998l0.0169983,0.0380001l0.0209961,0.0259991l0.0250092,0.0179996
			l0.0299988,0.0149994l0.0780029,0.0119991l16.7169952-0.0030003l0.0119934-0.0079994c0.026001,0,0.0510101,0,0.076004-0.0020008
			l0.0509949-0.0119991l0.0320129-0.0139999c0.0149994-0.0139999,0.0299988-0.0289993,0.0429993-0.0450001l0.0209961-0.0550003
			c0.0189972-0.1189995,0.0319977-0.2399998,0.0390015-0.3619995l0.0049896-0.0200005
			c0.2000122-1.5559998,0.7220001-3.0310001,1.3960114-4.441l0.0109863-0.0349998l0.0100098-0.0150013
			c0.0500031-0.0979996,0.0979919-0.1969986,0.1470032-0.2969971l0.0169983-0.0270004
			c0.0110016-0.0320015,0.026001-0.0600014,0.0439911-0.0890007l0.0070038-0.0200005
			c0.0330048-0.0530014,0.0610046-0.1090012,0.0839996-0.1660004c0.0200043-0.0349998,0.0390015-0.0699997,0.0579987-0.1060028
			l0.0050049-0.0149994c0.0699921-0.1299973,0.1409912-0.2599983,0.2140045-0.387001l0.0069885-0.0209961
			c0.0879974-0.156002,0.1760101-0.3100014,0.2620087-0.4660034L246.1319885-33.625
			c0.0670013-0.1030006,0.1290131-0.2099991,0.1840057-0.3209991l0.0039978-0.0130005l0.0200043-0.0299988
			c0.0849915-0.1679993,0.1320038-0.3540001,0.1360016-0.5419998l0.0039978-0.0149994v-0.0470009L246.4759979-34.6039963z
			 M230.4980011-28.5169983c-0.5079956,0-0.9210052-0.2709999-0.9210052-0.6049995
			c0-0.3309994,0.4120026-0.6019993,0.9210052-0.6019993c0.5050049,0,0.9149933,0.2709999,0.9149933,0.6019993
			C231.4129944-28.7879982,231.003006-28.5169983,230.4980011-28.5169983z M235.2189941-28.5169983
			c-0.5079956,0-0.9179993-0.2709999-0.9179993-0.6049995c0-0.3309994,0.4090118-0.6019993,0.9179993-0.6019993
			c0.506012,0,0.9179993,0.2709999,0.9179993,0.6019993C236.1369934-28.7879982,235.7250061-28.5169983,235.2189941-28.5169983z
			 M239.9720001-28.5169983c-0.5079956,0-0.9190063-0.2709999-0.9190063-0.6049995
			c0-0.3309994,0.4110107-0.6019993,0.9190063-0.6019993c0.5059967,0,0.9179993,0.2709999,0.9179993,0.6019993
			C240.8899994-28.7879982,240.4779968-28.5169983,239.9720001-28.5169983z"/>
		<path class="st0" d="M226.5090027-36.6239967c0,0.4770012-0.3430023,0.8639984-0.7649994,0.8639984
			c-0.4210052,0-0.7640076-0.3869972-0.7640076-0.8639984c0-0.4720001,0.3430023-0.8610001,0.7640076-0.8610001
			C226.1670074-37.4849968,226.5090027-37.0959969,226.5090027-36.6239967"/>
		<path class="st0" d="M227.7680054-38.5659981c0,0.4210014-0.3090057,0.7670021-0.6920013,0.7670021
			c-0.3840027,0-0.6920013-0.3470001-0.6920013-0.7670021s0.3089905-0.7670021,0.6920013-0.7670021
			C227.4589996-39.3329964,227.7680054-38.9860001,227.7680054-38.5659981"/>
		<path class="st0" d="M229.4329987-39.8959961c0,0.3599968-0.2669983,0.6489983-0.6009979,0.6489983
			c-0.3309937,0-0.5980072-0.2890015-0.5980072-0.6489983c0-0.3600006,0.2670135-0.6520004,0.5980072-0.6520004
			C229.1660004-40.5479965,229.4329987-40.2559967,229.4329987-39.8959961"/>
		<path class="st0" d="M231.1439972-40.822998c0,0.3180008-0.2249908,0.5699997-0.5019989,0.5699997
			c-0.2779999,0-0.5019989-0.2529984-0.5019989-0.5699997c0-0.3129997,0.223999-0.5670013,0.5019989-0.5670013
			C230.9179993-41.3899994,231.1439972-41.1359978,231.1439972-40.822998"/>
		<path class="st0" d="M232.8880005-41.0599976c0,0.2869987-0.2169952,0.5200005-0.4799957,0.5200005
			c-0.2669983,0-0.4830017-0.2330017-0.4830017-0.5200005c0-0.2840004,0.2160034-0.5170021,0.4830017-0.5170021
			C232.6710052-41.5779991,232.8880005-41.3449974,232.8880005-41.0599976"/>
		<path class="st0" d="M234.3049927-40.692997c0,0.25-0.1909943,0.4489975-0.4179993,0.4489975
			c-0.2349854,0-0.4229889-0.1999969-0.4229889-0.4489975c0-0.25,0.1879883-0.4519997,0.4229889-0.4519997
			C234.1150055-41.1449966,234.3049927-40.9419975,234.3049927-40.692997"/>
		<path class="st0" d="M233.2709961-39.572998c0,0.257-0.1929932,0.4640007-0.4299927,0.4640007
			c-0.2389984,0-0.4340057-0.2070007-0.4340057-0.4640007c0-0.2560005,0.1950073-0.4630013,0.4340057-0.4630013
			C233.0780029-40.0359993,233.2709961-39.8289986,233.2709961-39.572998"/>
		<path class="st0" d="M231.4640045-36.7389984c0,0.4280014-0.3180084,0.7789993-0.7089996,0.7789993
			c-0.3930054,0-0.7100067-0.3509979-0.7100067-0.7789993s0.3180084-0.776001,0.7100067-0.776001
			C231.1459961-37.5149994,231.4640045-37.1669998,231.4640045-36.7389984"/>
		<path class="st0" d="M235.9490051-36.7679977c0,0.4300003-0.3180084,0.7729988-0.7100067,0.7729988
			s-0.7079926-0.3429985-0.7079926-0.7729988c0-0.4280014,0.3159943-0.7779999,0.7079926-0.7779999
			S235.9490051-37.1959991,235.9490051-36.7679977"/>
		<path class="st0" d="M235.7799988-38.7299995c0,0.3300018-0.2409973,0.5960007-0.5419922,0.5960007
			c-0.2990112,0-0.5390015-0.2659988-0.5390015-0.5960007c0-0.3269997,0.2399902-0.5959969,0.5390015-0.5959969
			C235.5390015-39.3269958,235.7799988-39.0569992,235.7799988-38.7299995"/>
		<path class="st0" d="M235.6329956-40.2929993c0,0.2380028-0.1749878,0.4280014-0.3959961,0.4280014
			c-0.2160034,0-0.3939972-0.1910019-0.3939972-0.4280014c0-0.2449989,0.1779938-0.435997,0.3939972-0.435997
			C235.4580078-40.7289963,235.6329956-40.5379982,235.6329956-40.2929993"/>
		<path class="st0" d="M232.0870056-38.480999c0,0.3059998-0.2320099,0.5509987-0.5149994,0.5509987
			c-0.2810059,0-0.5110016-0.2449989-0.5110016-0.5509987s0.2289886-0.5550003,0.5110016-0.5550003
			C231.8540039-39.0359993,232.0870056-38.7859993,232.0870056-38.480999"/>
		<path class="st0" d="M243.9720001-36.6239967c0,0.4770012,0.3399963,0.8639984,0.7619934,0.8639984
			c0.4240112,0,0.7630005-0.3869972,0.7630005-0.8639984c0-0.4720001-0.3399963-0.8610001-0.7630005-0.8610001
			C244.3119965-37.4849968,243.9720001-37.0959969,243.9720001-36.6239967"/>
		<path class="st0" d="M242.7120056-38.5659981c0,0.4210014,0.3119965,0.7670021,0.6919861,0.7670021
			c0.3830109,0,0.6940002-0.3470001,0.6940002-0.7670021s-0.3099976-0.7670021-0.6940002-0.7670021
			C243.0240021-39.3329964,242.7120056-38.9860001,242.7120056-38.5659981"/>
		<path class="st0" d="M241.048996-39.8959961c0,0.3599968,0.2680054,0.6489983,0.5980072,0.6489983
			c0.3309937,0,0.5979919-0.2890015,0.5979919-0.6489983c0-0.3600006-0.2669983-0.6520004-0.5979919-0.6520004
			C241.3170013-40.5479965,241.048996-40.2559967,241.048996-39.8959961"/>
		<path class="st0" d="M239.3379974-40.822998c0,0.3180008,0.2250061,0.5699997,0.4980011,0.5699997
			c0.2810059,0,0.5039978-0.2529984,0.5039978-0.5699997c0-0.3129997-0.2229919-0.5670013-0.5039978-0.5670013
			C239.5619965-41.3899994,239.3379974-41.1359978,239.3379974-40.822998"/>
		<path class="st0" d="M237.5919952-41.0599976c0,0.2869987,0.2160034,0.5200005,0.480011,0.5200005
			c0.2649994,0,0.4789886-0.2330017,0.4789886-0.5200005c0-0.2840004-0.2139893-0.5170021-0.4789886-0.5170021
			C237.8079987-41.5779991,237.5919952-41.3449974,237.5919952-41.0599976"/>
		<path class="st0" d="M236.1730042-40.692997c0,0.25,0.1909943,0.4489975,0.4219971,0.4489975
			s0.4190063-0.1999969,0.4190063-0.4489975c0-0.25-0.1880035-0.4519997-0.4190063-0.4519997
			S236.1730042-40.9419975,236.1730042-40.692997"/>
		<path class="st0" d="M237.2070007-39.572998c0,0.257,0.1959991,0.4640007,0.4329987,0.4640007
			c0.2360077,0,0.4320068-0.2070007,0.4320068-0.4640007c0-0.2560005-0.1959991-0.4630013-0.4320068-0.4630013
			C237.4029999-40.0359993,237.2070007-39.8289986,237.2070007-39.572998"/>
		<path class="st0" d="M239.0180054-36.7389984c0,0.4280014,0.3149872,0.7789993,0.7079926,0.7789993
			c0.3910065,0,0.7089996-0.3509979,0.7089996-0.7789993s-0.3179932-0.776001-0.7089996-0.776001
			C239.3330078-37.5149994,239.0180054-37.1669998,239.0180054-36.7389984"/>
		<path class="st0" d="M238.3950043-38.480999c0,0.3059998,0.2289886,0.5509987,0.5119934,0.5509987
			s0.5130005-0.2449989,0.5130005-0.5509987s-0.2299957-0.5550003-0.5130005-0.5550003
			S238.3950043-38.7859993,238.3950043-38.480999"/>
	</g>
</g>
<g id="Leaves_7_">
	<g>
		<path class="st0" d="M268.6829834-27.5199986c-0.0039978,0.2329998-0.1879883,0.4139996-0.4299927,0.4179993
			c-0.2409973-0.0030003-0.4239807-0.1819992-0.4299927-0.4179993c0-0.2329998,0.1860046-0.4120007,0.4299927-0.4130001
			C268.4920044-27.9329987,268.677002-27.7529984,268.6829834-27.5199986"/>
		<path class="st0" d="M267.7949829-28.3129978c-0.4269714,0.2950001-1.2099915-0.1739998-1.6809692-1.0179996
			c-0.5490112-0.9860001-0.4400024-2.4860001-0.4400024-2.4860001s1.2719727,0.6259995,1.8939819,1.4619999
			C268.1910095-29.5219975,268.2739868-28.6429977,267.7949829-28.3129978"/>
		<path class="st0" d="M264.6499939-29.5979977c-0.5149841,0.1030006-1.2770081-0.5930004-1.4869995-1.6009998
			c-0.2129822-1.0079994,0.1710205-2.6100006,0.1710205-2.6100006s1.3840027,1.2000008,1.7179871,2.210001
			C265.3900146-30.586998,265.1600037-29.7289982,264.6499939-29.5979977"/>
		<path class="st0" d="M265.5320129-28.8519974c-0.0620117,0.1620007-0.2380066,0.2409992-0.4090271,0.1830006
			c-0.1669922-0.059-0.25-0.2299995-0.1929932-0.3929996c0.0620117-0.1620007,0.2390137-0.2420006,0.4120178-0.1849995
			C265.5079956-29.185997,265.5920105-29.0169983,265.5320129-28.8519974"/>
		<path class="st0" d="M261.822998-31.4149971c-0.5029907,0-0.8800049-0.4620018-0.8800049-1.3330002
			c0-1.0559998,0.8970032-2.2980003,0.8970032-2.2980003s0.8529968,1.2709999,0.8529968,2.1669998
			C262.6929932-31.9819984,262.32901-31.4149971,261.822998-31.4149971"/>
		<path class="st0" d="M262.8999939-30.0369987c-0.1229858,0.1389999-0.3339844,0.1590004-0.4859924,0.0419998
			c-0.144989-0.1210003-0.1650085-0.3219986-0.0429993-0.4659996c0.1289978-0.1380005,0.3370056-0.1569996,0.4889832-0.0389996
			C263.0029907-30.3799973,263.0230103-30.1819973,262.8999939-30.0369987"/>
		<path class="st0" d="M260.6759949-31.8389969c-0.125,0.0709991-0.2810059,0.0289993-0.355011-0.0890007
			c-0.0669861-0.1209984-0.0239868-0.2659988,0.1010132-0.3370018c0.1289978-0.067997,0.2799988-0.0329971,0.3519897,0.0880013
			C260.8439941-32.0550003,260.8040161-31.9109993,260.6759949-31.8389969"/>
		<path class="st0" d="M259.45401-34.8239975c-0.2180176,0.0330009-0.4120178-0.0979996-0.4460144-0.3059998
			c-0.026001-0.2070007,0.1180115-0.3950005,0.3359985-0.4329987c0.2189941-0.0349998,0.4089966,0.093998,0.4429932,0.3040009
			C259.8160095-35.053997,259.6699829-34.862999,259.45401-34.8239975"/>
		<path class="st0" d="M260.1759949-37.1369972c-0.2160034-0.0330009-0.3469849-0.2210007-0.3059998-0.4370003
			c0.0480042-0.2150002,0.2510071-0.3590012,0.4689941-0.3310013c0.2160034,0.0349998,0.3450012,0.2249985,0.3040161,0.4389992
			C260.5960083-37.2549973,260.3930054-37.1110001,260.1759949-37.1369972"/>
		<path class="st0" d="M261.7669983-29.9559975c-0.1669922,0.5249996-0.7720032,0.7630005-1.6799927,0.4710007
			c-1.0930176-0.3449993-2.0890198-1.6949997-2.0890198-1.6949997s1.6020203-0.4630013,2.5339966-0.1650009
			C261.4660034-31.0469971,261.9339905-30.4829979,261.7669983-29.9559975"/>
		<path class="st0" d="M264.3659973-28.6609974c0.0599976,0.4890003-0.3979797,0.9109993-1.3450012,1.0079994
			c-1.1430054,0.1170006-2.598999-0.625-2.598999-0.625s1.2789917-0.9710007,2.2539978-1.073
			C263.6520081-29.4499989,264.3049927-29.1569977,264.3659973-28.6609974"/>
		<path class="st0" d="M266.7659912-28.0419979c0.1880188,0.3929996-0.0740051,0.8729992-0.8359985,1.2210007
			c-0.92099,0.4220009-2.3429871,0.2150002-2.3429871,0.2150002s0.7900085-1.1739998,1.5759888-1.532999
			C265.9459839-28.4959984,266.5759888-28.4399986,266.7659912-28.0419979"/>
		<path class="st0" d="M259.9769897-32.4569969c-0.322998,0.3219986-0.8899841,0.2329979-1.4949951-0.3979988
			c-0.7369995-0.7630005-1.026001-2.2440033-1.026001-2.2440033s1.4330139,0.375,2.0580139,1.0290031
			C260.1419983-33.4229965,260.302002-32.7829971,259.9769897-32.4569969"/>
		<path class="st0" d="M260.3720093-34.2089996c-0.3399963-0.0639992-0.5039978-0.4929962-0.3399963-1.211998
			c0.1999817-0.8649979,1.0429993-1.7719994,1.0429993-1.7719994s0.3309937,1.1559982,0.1569824,1.8929977
			C261.0639954-34.5569992,260.7120056-34.1409988,260.3720093-34.2089996"/>
		<path class="st0" d="M259.9179993-38.3449974c-0.3399963-0.012001-0.5750122-0.3660011-0.5419922-1.0139999
			c0.0439758-0.7869987,0.6990051-1.6930008,0.6990051-1.6930008s0.5239868,0.9729996,0.4849854,1.6389999
			C260.5239868-38.7439995,260.2590027-38.3289986,259.9179993-38.3449974"/>
		<path class="st0" d="M260.8779907-38.5319977c-0.190979-0.177002-0.1359863-0.5110016,0.2409973-0.8930016
			c0.4530029-0.4580002,1.3250122-0.6959991,1.3250122-0.6959991s-0.2260132,0.8530006-0.6119995,1.25
			C261.4459839-38.4759979,261.072998-38.3579979,260.8779907-38.5319977"/>
		<path class="st0" d="M262.5499878-41.442997c-0.1689758-0.1539993-0.1199951-0.446003,0.20401-0.7870026
			c0.3909912-0.4099998,1.1579895-0.6189995,1.1579895-0.6189995s-0.1929932,0.75-0.5289917,1.0979996
			C263.0490112-41.3989983,262.7189941-41.2929993,262.5499878-41.442997"/>
		<path class="st0" d="M259.2659912-35.968998c-0.3710022,0.1269989-0.7709961-0.156002-1-0.8709984
			c-0.2829895-0.8590012,0.0480042-2.1060028,0.0480042-2.1060028s0.9660034,0.8260002,1.2000122,1.5629997
			C259.7550049-36.6499977,259.6390076-36.098999,259.2659912-35.968998"/>
		<path class="st0" d="M260.9429932-40.1239967c-0.2859802-0.1389999-0.3540039-0.5340004-0.0759888-1.0800018
			c0.3349915-0.6580009,1.2460022-1.1909981,1.2460022-1.1909981s0.0789795,1.0299988-0.2070007,1.5979996
			C261.6210022-40.2369995,261.2330017-39.9799995,260.9429932-40.1239967"/>
		<path class="st0" d="M268.7109985-28.3129978c0.427002,0.2950001,1.2099915-0.1739998,1.6799927-1.0179996
			c0.5480042-0.9860001,0.4400024-2.4860001,0.4400024-2.4860001s-1.2720032,0.6259995-1.8939819,1.4619999
			C268.3179932-29.5219975,268.2319946-28.6429977,268.7109985-28.3129978"/>
		<path class="st0" d="M271.8559875-29.5979977c0.5150146,0.1030006,1.2750244-0.5930004,1.4869995-1.6009998
			c0.2130127-1.0079994-0.17099-2.6100006-0.17099-2.6100006s-1.3840027,1.2000008-1.7179871,2.210001
			C271.1159973-30.586998,271.3479919-29.7289982,271.8559875-29.5979977"/>
		<path class="st0" d="M270.9710083-28.8519974c0.0629883,0.1620007,0.2409973,0.2409992,0.4119873,0.1830006
			c0.1700134-0.059,0.25-0.2299995,0.1929932-0.3929996c-0.0619812-0.1620007-0.2389832-0.2420006-0.4119873-0.1849995
			C270.9979858-29.185997,270.9160156-29.0169983,270.9710083-28.8519974"/>
		<path class="st0" d="M274.6829834-31.4149971c0.5030212,0,0.8800049-0.4620018,0.8800049-1.3330002
			c0-1.0559998-0.8989868-2.2980003-0.8989868-2.2980003s-0.8510132,1.2709999-0.8510132,2.1669998
			C273.8139954-31.9819984,274.177002-31.4149971,274.6829834-31.4149971"/>
		<path class="st0" d="M273.6059875-30.0369987c0.1230164,0.1389999,0.3340149,0.1590004,0.4860229,0.0419998
			c0.1470032-0.1210003,0.164978-0.3219986,0.0409851-0.4659996c-0.1269836-0.1380005-0.3349915-0.1569996-0.4869995-0.0389996
			C273.4989929-30.3799973,273.4830017-30.1819973,273.6059875-30.0369987"/>
		<path class="st0" d="M275.8280029-31.8389969c0.1289978,0.0709991,0.2810059,0.0289993,0.3569946-0.0890007
			c0.0690002-0.1209984,0.026001-0.2659988-0.1010132-0.3370018c-0.1259766-0.067997-0.2779846-0.0329971-0.3519897,0.0880013
			C275.6619873-32.0550003,275.7050171-31.9109993,275.8280029-31.8389969"/>
		<path class="st0" d="M277.0540161-34.8239975c0.2179871,0.0330009,0.4089966-0.0979996,0.440979-0.3059998
			c0.0299988-0.2070007-0.1170044-0.3950005-0.3330078-0.4329987c-0.2189941-0.0349998-0.4089966,0.093998-0.4399719,0.3040009
			C276.6900024-35.053997,276.8359985-34.862999,277.0540161-34.8239975"/>
		<path class="st0" d="M276.3300171-37.1369972c0.2139893-0.0330009,0.3469849-0.2210007,0.3059692-0.4370003
			c-0.0479736-0.2150002-0.2509766-0.3590012-0.4679871-0.3310013c-0.2189941,0.0349998-0.3460083,0.2249985-0.3059998,0.4389992
			C275.9089966-37.2549973,276.1090088-37.1110001,276.3300171-37.1369972"/>
		<path class="st0" d="M274.7390137-29.9559975c0.1699829,0.5249996,0.7719727,0.7630005,1.6799927,0.4710007
			c1.0929871-0.3449993,2.0910034-1.6949997,2.0910034-1.6949997s-1.605011-0.4630013-2.5400085-0.1650009
			C275.0400085-31.0469971,274.571991-30.4829979,274.7390137-29.9559975"/>
		<path class="st0" d="M272.1400146-28.6609974c-0.0610046,0.4890003,0.3979797,0.9109993,1.3449707,1.0079994
			c1.1430054,0.1170006,2.598999-0.625,2.598999-0.625s-1.2809753-0.9710007-2.2539978-1.073
			C272.8559875-29.4499989,272.2009888-29.1569977,272.1400146-28.6609974"/>
		<path class="st0" d="M269.7399902-28.0419979c-0.1879883,0.3929996,0.0740051,0.8729992,0.8359985,1.2210007
			c0.9210205,0.4220009,2.3450012,0.2150002,2.3450012,0.2150002s-0.7929993-1.1739998-1.5799866-1.532999
			C270.5599976-28.4959984,269.9290161-28.4399986,269.7399902-28.0419979"/>
		<path class="st0" d="M276.5289917-32.4569969c0.3220215,0.3219986,0.8900146,0.2329979,1.4970093-0.3979988
			c0.7349854-0.7630005,1.0239868-2.2440033,1.0239868-2.2440033s-1.4339905,0.375-2.0579834,1.0290031
			C276.3619995-33.4229965,276.2030029-32.7829971,276.5289917-32.4569969"/>
		<path class="st0" d="M276.131012-34.2089996c0.3429871-0.0639992,0.5059814-0.4929962,0.3429871-1.211998
			c-0.2000122-0.8649979-1.0419922-1.7719994-1.0419922-1.7719994s-0.3330078,1.1559982-0.1589966,1.8929977
			C275.4420166-34.5569992,275.7940063-34.1409988,276.131012-34.2089996"/>
		<path class="st0" d="M276.5899963-38.3449974c0.3370056-0.012001,0.572998-0.3660011,0.5390015-1.0139999
			c-0.0429993-0.7869987-0.697998-1.6930008-0.697998-1.6930008s-0.5220032,0.9729996-0.4850159,1.6389999
			C275.980011-38.7439995,276.2470093-38.3289986,276.5899963-38.3449974"/>
		<path class="st0" d="M275.6260071-38.5319977c0.1929932-0.177002,0.1340027-0.5110016-0.2390137-0.8930016
			c-0.4530029-0.4580002-1.3280029-0.6959991-1.3280029-0.6959991s0.2260132,0.8530006,0.6140137,1.25
			C275.0559998-38.4759979,275.4349976-38.3579979,275.6260071-38.5319977"/>
		<path class="st0" d="M273.9559937-41.442997c0.1690063-0.1539993,0.1199951-0.446003-0.2039795-0.7870026
			c-0.3940125-0.4099998-1.1589966-0.6189995-1.1589966-0.6189995s0.1929932,0.75,0.5279846,1.0979996
			C273.4559937-41.3989983,273.7839966-41.2929993,273.9559937-41.442997"/>
		<path class="st0" d="M277.2409973-35.968998c0.3710022,0.1269989,0.7709961-0.156002,1-0.8709984
			c0.2820129-0.8590012-0.0480042-2.1060028-0.0480042-2.1060028s-0.9639893,0.8260002-1.1999817,1.5629997
			C276.7510071-36.6499977,276.8680115-36.098999,277.2409973-35.968998"/>
		<path class="st0" d="M275.5629883-40.1239967c0.2860107-0.1389999,0.3540039-0.5340004,0.07901-1.0800018
			c-0.3370056-0.6580009-1.2480164-1.1909981-1.2480164-1.1909981s-0.0789795,1.0299988,0.2070312,1.5979996
			C274.8850098-40.2369995,275.2709961-39.9799995,275.5629883-40.1239967"/>
	</g>
</g>
<path class="st1" d="M292.1080017-20.8599987l-18.5710144,48.2850037l-17.414978-22.1259995l19.6059875-26.1399994h-16.3089905
	L242.0599976,4.5020027v-25.342001h-13.6389923v52.2779999h13.6389923v-25.382l18.3280029,25.382h11.605011l-0.0020142,0.0059967
	h14.4289856l3.6080322-9.086998h18.7299805l3.3989868,9.086998h14.4980164L306.95401-20.8599987H292.1080017z
	 M293.7730103,11.9530029l5.618988-16.6490021h0.1390076l5.5499878,16.6490021H293.7730103z M367.2149963-4.7649994
	c0-11.1679993-7.8390198-16.0949993-18.1739807-16.0949993h-20.3260193v52.3050003h13.5970154V11.3280029h0.1389771
	l14.4830017,20.1170044h15.276001L355.769989,10.0100098C363.1920166,8.6920013,367.2149963,2.4480019,367.2149963-4.7649994z
	 M343.6300049,2.5870018h-1.3179932V-10.454998h1.3179932c4.4400024,0,9.4339905,0.8330002,9.4339905,6.5209999
	S348.0690002,2.5870018,343.6300049,2.5870018z M398.9539795-22.5929985c-15.0529785,0-28.927002,11.098999-28.927002,26.9150009
	c0,16.9259987,12.1400146,28.8579979,28.927002,28.8579979c16.7880249,0,28.928009-11.9319992,28.928009-28.8580017
	C427.8809814-11.4939995,414.007019-22.5929985,398.9539795-22.5929985z M398.9539795,19.9990005
	c-8.1159668,0-14.7749634-6.5900002-14.7749634-15.6080017c0-7.2150002,6.6589966-13.8050003,14.7749634-13.8050003
	c8.1170044,0,14.776001,6.5900002,14.776001,13.8050003C413.7299805,13.4090004,407.0700073,19.9990005,398.9539795,19.9990005z
	 M445.1459961-20.8599987h-13.5969849v52.3050003h29.8979797V19.9300003h-16.302002v-40.7900009H445.1459961z
	 M466.598999,31.4449997h13.5969849v-52.3050003H466.598999V31.4449997L466.598999,31.4449997z M524.4379883,11.1200027h-0.1390381
	L499.394989-20.8599968h-13.5960083v52.3050041h13.5960083V-0.6039963h0.1390076l24.9039917,32.0490036h13.5960083v-52.3050079
	h-13.5960083V11.1200027z M663.1660156-20.8599987h-14.8450317l-18.6279907,48.4300003L612.1629639,5.2989998l19.6060181-26.1399994
	h-16.309021L598.1009521,4.5009995v-25.3409977h-13.6389771v52.2779999h13.6389771v-25.382l18.3280029,25.382h11.776001
	l-0.0019531,0.0059967h14.4289551l3.6080322-9.086998h18.7299805l3.3989868,9.086998h14.4979858L663.1660156-20.8599987z
	 M649.9859619,11.9530029l5.6190186-16.6490021h0.1390381l5.5499268,16.6490021H649.9859619z M567.7260132-0.4659996
	l-3.4679565-1.0390015C561.9000244-2.269001,558.2230225-3.4480019,558.2230225-6.5
	c0-2.9140015,3.3299561-4.3699989,5.8280029-4.3699989c2.6569824,0,5.2189941,0.8930016,7.4169922,2.3069992l6.5799561-9.6049995
	c-4.6119385-2.5020008-10.822998-4.0779991-15.9399414-4.0779991c-10.4750366,0-18.0360107,6.9370003-18.0360107,17.5509987
	c0,10.1279984,5.6189575,12.3479996,14.151001,14.7750015c2.9129639,0.8330002,8.2550049,2.151001,8.2550049,5.9650002
	c0,3.6779976-3.3990479,5.2729988-6.5900269,5.2729988c-3.9949951,0-7.5280151-1.7959976-10.6010132-4.1949997
	l-6.8659668,10.0240021c5.256958,3.5690002,11.5349731,5.685997,17.9519653,5.685997
	c5.2720337,0,10.7520142-1.4560013,14.8450317-4.9250031c4.1619873-3.538002,5.4099731-8.8789978,5.4099731-14.0830002
	C580.6290283,5.3620033,575.0100098,1.6850014,567.7260132-0.4659996z"/>
<path class="st0" d="M238.9839935,47.3800049c0,2.2399979-0.1599884,4.6869965-3.0410004,4.6869965
	c-2.8809967,0-3.0409851-2.4469986-3.0409851-4.6869965V38.303009h-4.4810028v9.6930008
	c0,2.2180023,0.0909882,4.4140015,1.8059998,6.0820007c1.4400024,1.4169998,3.7039948,1.9209976,5.7159882,1.9209976
	c2.0120087,0,4.276001-0.5039978,5.7160034-1.9209976c1.7149963-1.6679993,1.8059998-3.8639984,1.8059998-6.0820007V38.303009
	h-4.4810028V47.3800049z M259.5899963,48.8440018h-0.0449829l-8.2080078-10.5400009h-4.4810028v17.2389984h4.4810028V44.9800034
	h0.04599l8.2080078,10.5620041h4.4809875v-17.239006h-4.4819946V48.8440018z M267.5610046,55.5419998h4.4809875V38.3030014
	h-4.4809875V55.5419998z M283.1900024,48.7750015l-4.1610107-10.4720001h-4.8699951l7.2480164,17.2389984h3.4749756
	l7.36203-17.2389984h-4.8700256L283.1900024,48.7750015z M294.401001,55.5419998h9.8079834v-3.7959976h-5.3269958v-2.9710007
	h5.053009v-3.7959976h-5.053009v-2.8799973h5.3269958V38.303009h-9.8079834V55.5419998z M338.0939941,55.5419998h4.4810181
	V38.3030014h-4.4810181V55.5419998z M345.0209961,42.098999h3.7030029v13.4430008h4.4810181V42.098999h3.7039795v-3.7959976
	H345.019989v3.7959976H345.0209961z M359.3869934,55.5419998h9.8080139v-3.7959976h-5.3270264v-2.9710007h5.053009v-3.7959976
	h-5.053009v-2.8799973h5.3270264V38.303009h-9.8080139V55.5419998z M371.5839844,42.098999h3.70401v13.4430008h4.4809875V42.098999
	h3.70401v-3.7959976h-11.8890076V42.098999L371.5839844,42.098999z M418.1149902,49.6669998
	c0,0.9599991,0.0460205,2.5370026-1.2810059,2.5370026c-0.5939941,0-1.3029785-0.7770004-1.8059692-1.4629974l-2.5840149,2.7210007
	c1.0290222,1.5780029,2.5149841,2.5370026,4.4360046,2.5370026c3.8179932,0,5.7160034-2.4229965,5.7160034-6.0579987V38.3030014
	h-4.4810181V49.6669998z M436.4470215,47.3800049c0,2.2399979-0.1600342,4.6869965-3.0410156,4.6869965
	s-3.0410156-2.4469986-3.0410156-4.6869965V38.303009h-4.4809875v9.6930008c0,2.2180023,0.0910034,4.4140015,1.8059998,6.0820007
	c1.4400024,1.4169998,3.7039795,1.9209976,5.7160034,1.9209976c2.0119934,0,4.2749939-0.5039978,5.7160034-1.9209976
	c1.7149963-1.6679993,1.8059998-3.8639984,1.8059998-6.0820007V38.303009h-4.4809875V47.3800049z M473.4609985,44.9560013
	h-6.4700012v-6.6520004h-4.4809875v17.2389984h4.4809875v-7.064003h6.4700012v7.064003h4.4810181V38.3030014h-4.4810181V44.9560013z
	 M491.8959961,47.3800049c0,2.2399979-0.1600037,4.6869965-3.0409851,4.6869965
	c-2.881012,0-3.0409851-2.4469986-3.0409851-4.6869965V38.303009h-4.4809875v9.6930008
	c0,2.2180023,0.0910034,4.4140015,1.8059998,6.0820007c1.4400024,1.4169998,3.70401,1.9209976,5.7160034,1.9209976
	s4.2749939-0.5039978,5.7160034-1.9209976c1.7149963-1.6679993,1.8059998-3.8639984,1.8059998-6.0820007V38.303009h-4.4809875
	v9.0769958H491.8959961z M513.9699707,55.5419998h9.8080444v-3.7959976h-5.3269653v-2.9710007h5.0529785v-3.7959976h-5.0529785
	v-2.8799973h5.3269653V38.303009h-9.8080444V55.5419998z M526.1669922,38.3030014v3.7959976h3.7039795v13.4430008h4.4810181
	V42.098999h3.7040405v-3.7959976H526.1669922z M460.0269775,38.2850037h-5.3670044l-5.7119751,8.3389969v-8.3389969h-4.4880371
	v17.2030029h4.4880371v-8.3529968l6.0310059,8.3529968h5.3670044l-6.7709961-8.6019974L460.0269775,38.2850037z
	 M507.1350098,44.9900055l-1.1409912-0.3420029c-0.776001-0.2509995-1.9859924-0.6389999-1.9859924-1.6439972
	c0-0.9589996,1.0960083-1.4380035,1.9179993-1.4380035c0.8739929,0,1.7170105,0.2939987,2.4410095,0.7590027l2.1650085-3.1610031
	c-1.5180054-0.822998-3.5620117-1.3420029-5.2449951-1.3420029c-3.446991,0-5.9349976,2.2829971-5.9349976,5.776001
	c0,3.3330002,1.848999,4.0630035,4.6570129,4.8619995c0.9590149,0.2740021,2.7170105,0.7080002,2.7170105,1.9629974
	c0,1.2099991-1.118988,1.7350006-2.1690063,1.7350006c-1.3150024,0-2.4769897-0.5910034-3.4880066-1.3799973l-2.2590027,3.2979965
	c1.730011,1.1740036,3.79599,1.8710022,5.9079895,1.8710022c1.7349854,0,3.5379944-0.4789963,4.8850098-1.6210022
	c1.3699951-1.1640015,1.7799988-2.9219971,1.7799988-4.6340027
	C511.3800049,46.9080048,509.5310059,45.6980057,507.1350098,44.9900055z M407.2600098,44.9900055l-1.1410217-0.3420029
	c-0.776001-0.2509995-1.9859924-0.6389999-1.9859924-1.6439972c0-0.9589996,1.0960083-1.4380035,1.9179993-1.4380035
	c0.8739929,0,1.7170105,0.2939987,2.4410095,0.7590027l2.164978-3.1610031
	c-1.5180054-0.822998-3.5620117-1.3420029-5.2449951-1.3420029c-3.4470215,0-5.9349976,2.2829971-5.9349976,5.776001
	c0,3.3330002,1.848999,4.0630035,4.6569824,4.8619995c0.9590149,0.2740021,2.7170105,0.7080002,2.7170105,1.9629974
	c0,1.2099991-1.118988,1.7350006-2.1690063,1.7350006c-1.3150024,0-2.4770203-0.5910034-3.4880066-1.3799973l-2.2590027,3.2979965
	c1.730011,1.1740036,3.79599,1.8710022,5.9079895,1.8710022c1.7350159,0,3.5380249-0.4789963,4.8850098-1.6210022
	c1.3699951-1.1640015,1.7799988-2.9219971,1.7799988-4.6340027
	C411.5059814,46.9080048,409.6569824,45.6980057,407.2600098,44.9900055z M393.0820007,44.9900055l-1.1410217-0.3420029
	c-0.776001-0.2509995-1.9859619-0.6389999-1.9859619-1.6439972c0-0.9589996,1.0959778-1.4380035,1.9179688-1.4380035
	c0.8740234,0,1.7170105,0.2939987,2.4410095,0.7590027l2.1650085-3.1610031
	c-1.5180054-0.822998-3.5620117-1.3420029-5.2449951-1.3420029c-3.4470215,0-5.9349976,2.2829971-5.9349976,5.776001
	c0,3.3330002,1.848999,4.0630035,4.6569824,4.8619995c0.9589844,0.2740021,2.71698,0.7080002,2.71698,1.9629974
	c0,1.2099991-1.118988,1.7350006-2.1690063,1.7350006c-1.3150024,0-2.4769897-0.5910034-3.4879761-1.3799973l-2.2590332,3.2979965
	c1.730011,1.1740036,3.7960205,1.8710022,5.90802,1.8710022c1.7349854,0,3.5379944-0.4789963,4.8850098-1.6210022
	c1.3699951-1.1640015,1.7799683-2.9219971,1.7799683-4.6340027
	C397.3280029,46.9080048,395.4790039,45.6980057,393.0820007,44.9900055z M331.223999,44.9900055l-1.1409912-0.3420029
	c-0.776001-0.2509995-1.9860229-0.6389999-1.9860229-1.6439972c0-0.9589996,1.0960083-1.4380035,1.9180298-1.4380035
	c0.8739929,0,1.71698,0.2939987,2.440979,0.7590027l2.1650085-3.1610031
	c-1.5180054-0.822998-3.5619812-1.3420029-5.2449951-1.3420029c-3.446991,0-5.9349976,2.2829971-5.9349976,5.776001
	c0,3.3330002,1.848999,4.0630035,4.6569824,4.8619995c0.9590149,0.2740021,2.7170105,0.7080002,2.7170105,1.9629974
	c0,1.2099991-1.1190186,1.7350006-2.1690063,1.7350006c-1.3150024,0-2.4769897-0.5910034-3.4879761-1.3799973l-2.2590332,3.2979965
	c1.730011,1.1740036,3.7960205,1.8710022,5.90802,1.8710022c1.7349854,0,3.5379944-0.4789963,4.8850098-1.6210022
	c1.3699951-1.1640015,1.7799683-2.9219971,1.7799683-4.6340027
	C335.4700012,46.9080048,333.6210022,45.6980057,331.223999,44.9900055z M320.1879883,43.6160049
	c0-3.6780014-2.5819702-5.3010025-5.9859924-5.3010025h-6.6940002v17.2269974h4.4779968v-6.6259995h0.04599l4.7700195,6.6259995
	h5.0310059l-5.4150085-7.0599976C318.8630066,48.0480042,320.1879883,45.9920044,320.1879883,43.6160049z M312.4199829,46.038002
	h-0.4339905v-4.2949982h0.4339905c1.4620056,0,3.1070251,0.2740021,3.1070251,2.1480026
	C315.5270081,45.7630005,313.882019,46.038002,312.4199829,46.038002z"/>
</svg>
