<?xml version="1.0" encoding="utf-8"?>
<!-- Generator: Adobe Illustrator 19.1.0, SVG Export Plug-In . SVG Version: 6.00 Build 0)  -->
<svg version="1.1" id="Layer_1" xmlns="http://www.w3.org/2000/svg" xmlns:xlink="http://www.w3.org/1999/xlink" x="0px" y="0px"
	 width="31.8920002px" height="45px" viewBox="11 -17 31.8920002 45" style="enable-background:new 11 -17 31.8920002 45;"
	 xml:space="preserve">
<style type="text/css">
	.st0{fill:#97999B;}
	.st1{fill:#00A3E0;}
</style>
<g id="Crown_18_">
	<g>
		<path class="st0" d="M17.5499992-14.3959999c0.1049995-0.0170002,0.2080002-0.0500002,0.302-0.1000004l0.0559998-0.0349998
			l0.0020008-0.0050001l0.0130005-0.007l0.0020008-0.0019999l0.0100002-0.0050001
			c0.0060005-0.0080004,0.0130005-0.0150003,0.0230007-0.0200005c0.0279999-0.0310001,0.0569992-0.0600004,0.0860004-0.0900002
			l0.0030003-0.0050001l0.0149994-0.0150003l0.0020008-0.0050001c0.0030003-0.0019999,0.0060005-0.0059996,0.0079994-0.0100002
			c0.0009995-0.0030003,0.0020008-0.0050001,0.0049992-0.007l0.0039997-0.0030003l0.0009995-0.0050001l0.0039997-0.0030003
			c0.0270004-0.0410004,0.052-0.0830002,0.0720005-0.1269999l0.0039997-0.0050001
			c0.0340004-0.0819998,0.0550003-0.1710005,0.0599995-0.2589998l0.0049992-0.0200005v-0.085l-0.0049992-0.0200005
			c-0.0119991-0.1269999-0.052-0.25-0.1189995-0.3579998c-0.0020008-0.0030003-0.0049992-0.0050001-0.0079994-0.0080004
			l-0.0020008-0.0050001c-0.0219994-0.033-0.0470009-0.0640001-0.0739994-0.0930004
			c-0.0060005-0.0059996-0.0130005-0.0120001-0.0200005-0.0170002l-0.0049992-0.0039997
			c-0.0100002-0.0080004-0.0189991-0.0159998-0.0279999-0.026l-0.0049992-0.0030003l-0.0060005-0.007l-0.0060005-0.0030003
			l-0.0060005-0.007c-0.0709991-0.0570002-0.1509991-0.1009998-0.2369995-0.132
			c-0.0130005-0.0089998-0.0249996-0.0190001-0.0359993-0.0319996l-0.0100002-0.0150003
			c-0.0079994-0.0209999-0.0130005-0.0430002-0.0160007-0.0649996c-0.0009995-0.0130005-0.0009995-0.0249996-0.0009995-0.0389996
			l-0.0009995-0.0060005v-0.0079994l-0.0009995-0.007c-0.0039997-0.0349998-0.0079994-0.0709991-0.0119991-0.1060009
			l-0.0009995-0.007c0.0009995-0.0079994,0.0020008-0.0170002,0.0009995-0.0240002l0.0060005-0.0170002l0.0079994-0.0090008
			c0.0079994-0.0039997,0.0160007-0.007,0.0249996-0.0100002h0.0230007
			c0.0450001,0.0100002,0.0900002,0.0179996,0.1359997,0.0270004h0.0189991l0.0200005,0.0030003h0.0160007l0.007,0.0020008
			h0.0639992l0.0060005-0.0020008c0.0230007,0,0.0459995-0.0030003,0.0669994-0.0119991
			c0.0249996-0.0100002,0.0480003-0.0259991,0.066-0.0459995c0.0179996-0.0240002,0.0289993-0.0529995,0.0349998-0.0830002
			v-0.0429993c-0.0060005-0.0389996-0.0230007-0.0739994-0.052-0.1009998l-0.0030003-0.0009995l-0.0030003-0.0039997
			c-0.0130005-0.0090008-0.0259991-0.0160007-0.0410004-0.0219994c-0.1040001-0.0209999-0.2119999-0.0130005-0.3139992,0.0219994
			h-0.0149994l-0.0060005,0.0020008C17.6800022-16.4970016,17.6680031-16.5,17.656002-16.5040016l-0.0119991-0.0100002
			l-0.0049992-0.0079994l-0.0049992-0.0189991c0.0319996-0.132,0.0279999-0.2649994-0.0149994-0.3899994l-0.0240002-0.0259991
			c-0.0170002-0.0139999-0.0349998-0.0249996-0.0550003-0.0349998L17.5149994-17l-0.0419998,0.0009995l-0.0289993,0.0079994
			l-0.0240002,0.0139999l-0.0060005,0.0079994L17.407999-16.967001c-0.0189991,0.0189991-0.0340004,0.0410004-0.0459995,0.066
			c-0.0139999,0.0370007-0.0209999,0.0760002-0.0209999,0.1159992l0.0009995,0.007
			c0.0009995,0.0149994,0.0009995,0.0289993,0.0020008,0.0450001l0.0009995,0.007v0.0100002l0.0030003,0.0079994
			c0.0100002,0.059,0.0179996,0.1189995,0.0209999,0.1790009c-0.0020008,0.0100002-0.0060005,0.0200005-0.0119991,0.0289993
			l-0.0060005,0.0039997l-0.007,0.0030003l-0.0179996,0.0020008l-0.0020008-0.0009995H17.309l-0.007-0.0020008h-0.0079994
			c-0.0779991-0.0209999-0.1580009-0.0319996-0.2390003-0.0349998c-0.0319996,0.0049992-0.0620003,0.0139999-0.0909996,0.0270004
			l-0.0310001,0.0200005c-0.0020008,0.0030003-0.0060005,0.0060005-0.0090008,0.0090008l-0.0020008,0.0020008l-0.0100002,0.0079994
			l-0.0020008,0.0049992l-0.0039997,0.0020008C16.895998-16.4419994,16.888998-16.427,16.8829975-16.4109993
			c-0.0060005,0.0219994-0.007,0.0440006-0.0060005,0.0669994c0.0020008,0.0200005,0.0079994,0.0410004,0.0170002,0.059
			c0.0100002,0.0170002,0.0230007,0.0340004,0.0380001,0.0480003l0.0230007,0.0170002
			c0.0310001,0.0130005,0.0639992,0.0209999,0.0970001,0.0230007c0.0090008-0.0009995,0.0189991-0.0009995,0.0279999-0.0009995
			l0.0200005-0.0039997c0.0709991-0.0049992,0.1429996-0.0170002,0.2129993-0.0349998h0.0279999
			c0.0100002,0.0030003,0.0189991,0.0079994,0.0279999,0.0130005l0.0039997,0.007h0.0009995l0.007,0.0160007l0.0039997,0.0289993
			l-0.0009995,0.0049992v0.0170002l-0.0020008,0.007c-0.0060005,0.0790005-0.0209999,0.158-0.0459995,0.2309999
			l-0.0109997,0.0139999c-0.0750008,0.033-0.1469994,0.073-0.2159996,0.118l-0.0009995,0.0019999l-0.0200005,0.0120001
			l-0.0030003,0.0030003c-0.0049992,0.0030003-0.0100002,0.007-0.0160007,0.0100002l-0.0039997,0.0080004l-0.0049992,0.0010004
			c-0.0319996,0.0279999-0.0610008,0.059-0.0860004,0.092l-0.0049992,0.0030003l-0.0020008,0.0050001l-0.0049992,0.0050001
			c-0.0020008,0.0039997-0.0049992,0.0080004-0.007,0.0120001l-0.0030003,0.0019999l-0.0009995,0.0030003
			c-0.0249996,0.0340004-0.0470009,0.0699997-0.066,0.1079998l-0.0009995,0.0050001
			c-0.0489998,0.099-0.0779991,0.2080002-0.0849991,0.3179998l-0.0039997,0.007
			c-0.0009995,0.1660004,0.0470009,0.3280001,0.1359997,0.4689999L16.934-14.7119961l0.0049992,0.0100002l0.0060005,0.0019999
			l0.0009995,0.0050001c0.0020008,0.0030003,0.0049992,0.0080004,0.0060005,0.0120001l0.0030003,0.0019999
			c0.0060005,0.0089998,0.0130005,0.0190001,0.0200005,0.0270004c0.0049992,0.0050001,0.0090008,0.0100002,0.0119991,0.0150003
			l0.0049992,0.0019999l0.0349998,0.0389996c0.0020008,0.0019999,0.0049992,0.0030003,0.007,0.0050001l0.0049992,0.0010004
			l0.0039997,0.0050001l0.0049992,0.0050001c0.0030003,0.0019999,0.0060005,0.0030003,0.0079994,0.0050001
			c0.0030003,0.0030003,0.0060005,0.007,0.0100002,0.0100002l0.0039997,0.0050001
			c0.0020008,0.0019999,0.0039997,0.0019999,0.0060005,0.0039997l0.0039997,0.0010004
			c0.0030003,0.0030003,0.007,0.0080004,0.0109997,0.0120001l0.0039997,0.0019999l0.0030003,0.0010004
			C17.2299995-14.4440002,17.3869991-14.3950005,17.5499992-14.3959999"/>
		<path class="st0" d="M24.0209999-10.2670002c0-0.0170002-0.0009995-0.0340004-0.0009995-0.052
			c-0.0119991-0.0600004-0.0330009-0.118-0.0639992-0.1709995L23.9510021-10.493
			c-0.0039997-0.0100002-0.0100002-0.0190001-0.0179996-0.0270004L23.9310017-10.526l-0.0060005-0.0080004l-0.0030003-0.0050001
			l-0.0079994-0.007h-0.0020008l-0.0259991-0.0319996l-0.0049992-0.0030003l-0.0170002-0.0190001l-0.0060005-0.0030003
			c-0.0039997-0.0050001-0.0079994-0.0089998-0.0130005-0.0120001l-0.0340004-0.0240002
			c-0.0160007-0.0059996-0.0300007-0.0139999-0.0440006-0.0240002l-0.0380001-0.0129995l-0.059-0.0120001h-0.0079994
			l-0.0100002-0.0030003l-0.0709991-0.0010004l-0.0380001,0.0059996h-0.0160007l-0.0319996,0.0089998
			c-0.0349998,0.0129995-0.0680008,0.0299997-0.1000004,0.0489998c-0.0359993,0.0299997-0.0709991,0.0609999-0.1030006,0.0959997
			l-0.0030003,0.0050001L23.2649994-10.5l-0.0020008,0.007l-0.0149994,0.0170002l-0.0020008,0.0050001l-0.0130005,0.0120001
			l-0.0020008,0.0050001l-0.007,0.007c-0.0389996,0.059-0.073,0.1199999-0.1019993,0.184
			c-0.1089993,0.2530003-0.1700001,0.5190001-0.243,0.783L22.869997-9.4629993l-0.0079994,0.007l-0.007,0.0019999l-0.007-0.0019999
			c-0.0049992-0.0050001-0.0100002-0.0089998-0.0139999-0.0129995c-0.0149994-0.0439997-0.0300007-0.0880003-0.0459995-0.132
			L22.777998-9.6159992l-0.0020008-0.0100002l-0.0230007-0.0410004l-0.0049992-0.0050001l-0.0020008-0.0059996
			c-0.0219994-0.033-0.0470009-0.0640001-0.0750008-0.0930004l-0.007-0.0030003l-0.0170002-0.0179996l-0.0049992-0.0030003
			l-0.0020008-0.0019999l-0.0060005-0.0019999l-0.0049992-0.007l-0.0389957-0.0240002l-0.0580006-0.0270004
			c-0.0340004-0.0089998-0.0680008-0.0170002-0.1030006-0.0220003h-0.0170002l-0.0079994-0.0019999h-0.0130005l-0.0079994,0.0019999
			h-0.0119991l-0.0079994,0.0030003c-0.0209999,0-0.0419998,0.0010004-0.0639992,0.0010004
			c-0.0440006,0.0129995-0.0849991,0.0319996-0.1229992,0.059l-0.0020008,0.0039997l-0.0100002,0.0050001l-0.0060005,0.0089998
			l-0.0049992,0.0019999l-0.0130024,0.0110006l-0.0060005,0.0030003l-0.0020008,0.0050001l-0.0030003,0.0019999
			l-0.0529976,0.0549994l-0.0020008,0.007c-0.0200005,0.0240002-0.0370007,0.0489998-0.052,0.0760002
			c-0.0139999,0.0279999-0.0240002,0.0579996-0.0310001,0.0889997c-0.0009995,0.0129995-0.0020008,0.026-0.0060005,0.0389996
			v0.0299997l-0.0009995,0.0080004c0,0.0380001,0.0009995,0.0749998,0.0009995,0.1120005l0.0009995,0.0080004v0.0120001
			c0.0100002,0.0649996,0.0330009,0.1260004,0.0680008,0.1820002l0.0039997,0.0019999l0.0060005,0.0139999
			c0.0119991,0.0190001,0.0249996,0.0369997,0.0410004,0.0539999l0.0060005,0.0050001
			c0.0230007,0.0200005,0.0470009,0.0389996,0.0720005,0.0570002c0.0100002,0.0030003,0.0200005,0.0089998,0.0289993,0.0150003
			c0.0559998,0.0229998,0.1149998,0.0380001,0.1739998,0.0459995h0.0459995
			c0.0219994-0.0010004,0.0450001-0.0050001,0.0669994-0.0120001h0.0170002l0.0100002-0.0050001h0.0319996l0.0179996,0.0100002
			l0.0119991,0.0139999l0.007,0.0120001l0.0090008,0.0340004l-0.0020008,0.052
			c-0.0209999,0.0930004-0.0489998,0.184-0.0849991,0.2729998l-0.0049992,0.007
			c-0.0209999,0.0489998-0.0459995,0.0970001-0.0739994,0.1429996l-0.0030003,0.0030003l-0.0209999,0.033l-0.0020008,0.0030003
			l-0.0009995,0.006999l-0.0039997,0.0030003l-0.007,0.0120001l-0.0030003,0.0030003l-0.0030003,0.0059996l-0.0049992,0.0060005
			c-0.0179996,0.0279999-0.0389996,0.0539999-0.0629997,0.0790005l-0.0060005,0.0050001l-0.0240002,0.0270004l-0.0059986,0.0039988
			L22.269001-8.2209997l-0.0049992,0.0030003l-0.007,0.0100002L22.25-8.2040005l-0.0030003,0.0019999l-0.0049992,0.0020008
			l-0.0049992,0.0050001l-0.0109997,0.007l-0.0030003,0.0030003c-0.0119991,0.0089998-0.0240002,0.0190001-0.0349998,0.0290003
			l-0.0049992,0.0019999l-0.0040016,0.0039997l-0.0039997,0.0039997l-0.0030003,0.0050001l-0.0060005,0.0019999
			l-0.0030003,0.0019999c-0.1480007,0.1090002-0.3199997,0.178-0.5030003,0.2030001H21.448
			c-0.1340008-0.0190001-0.2609997-0.0679998-0.3740005-0.1409998L21.073-8.0780001l-0.0049992-0.0030003l-0.0030003-0.0019999
			l-0.0249996-0.0170002l-0.0030003-0.0050001c-0.0039997-0.0030003-0.0090008-0.007-0.0139999-0.0089998l-0.0020008-0.0030003
			l-0.0310001-0.0229998L20.987999-8.1420002l-0.0179996-0.0120001c-0.0030003-0.0030003-0.007-0.0080004-0.0109997-0.0120001
			l-0.0119991-0.0080004C20.9440002-8.177001,20.941-8.1800003,20.9370003-8.1830006l-0.0020008-0.0030003l-0.0060005-0.0019999
			c-0.0030003-0.0019999-0.0049992-0.0050001-0.0079994-0.007l-0.0049992-0.0049992l-0.0060005-0.0030003
			c-0.0030003-0.0019999-0.0049992-0.0050001-0.0079994-0.007l-0.0030003-0.0050001
			c-0.0270004-0.026-0.0529995-0.0530005-0.0799999-0.0799999L20.816-8.3000002l-0.0109997-0.0120001L20.8029995-8.316
			l-0.0109997-0.0100002l-0.0019989-0.0059996l-0.0049992-0.007l-0.0020008-0.007l-0.0030003-0.0010004l-0.0030003-0.007
			c-0.0030003-0.0030003-0.0060005-0.007-0.0100002-0.0100002c-0.0079994-0.0100002-0.0160007-0.0220003-0.0230007-0.0340004
			l-0.0049992-0.0050001c-0.0230007-0.033-0.0429993-0.0670004-0.0629997-0.1009998l-0.0639992-0.1440001l-0.0060005-0.0089998
			c-0.0620003-0.1499996-0.1000004-0.3079996-0.1149998-0.4689999c-0.0009995-0.0159998,0-0.0310001,0.0030003-0.0459995
			l0.0079994-0.0200005l0.0089989-0.0079994l0.0079994-0.0030003h0.0100002l0.0240002,0.007L20.5839996-9.177l0.0009995,0.0019999
			L20.5979996-9.165l0.0020008,0.0019999l0.0049992,0.0030003l0.0020008,0.0030003l0.0049992,0.0019999l0.0039997,0.007
			l0.0060005,0.0019999l0.0020008,0.0030003c0.0039997,0.0030003,0.0079994,0.007,0.0119991,0.0100002l0.0060005,0.0059996
			C20.6739998-9.1059999,20.7049999-9.085,20.7350006-9.0620003c0.0559998,0.0310001,0.1149998,0.0550003,0.177,0.0719995
			c0.0249996,0.0059996,0.0499992,0.0089998,0.0760002,0.0080004l0.0079994,0.0050001h0.0569992l0.0839996-0.0129995
			c0.0370007-0.0120001,0.0720005-0.026,0.1070004-0.0430002l0.0419998-0.0299997l0.0030003-0.0050001l0.0060005-0.0030003
			C21.3110008-9.0839996,21.3260002-9.099,21.3390007-9.1149998l0.0020008-0.0050001l0.0160007-0.0170002l0.0039997-0.007
			c0.0289993-0.0439997,0.0550003-0.0909996,0.073-0.1409998l0.0139999-0.0530005v-0.0200005l0.0009995-0.007v-0.0319996
			l0.0030003-0.0100002v-0.0419998l-0.0030003-0.0100002v-0.0319996L21.4480019-9.5v-0.0129995
			c-0.0079994-0.0629997-0.0300007-0.1230001-0.066-0.1759996c-0.0200005-0.0240002-0.0410004-0.0469999-0.0610008-0.0710001
			l-0.0060005-0.0019999l-0.0189991-0.0220003l-0.0049992-0.0030003l-0.0060005-0.0080004
			c-0.0380001-0.0299997-0.0790005-0.0530005-0.1240005-0.0699997L21.111002-9.8739996h-0.0230007l-0.0090008-0.0030003
			c-0.0480003-0.0019999-0.0939999,0-0.1410007,0.0050001c-0.0599995,0.0129995-0.118,0.033-0.1730003,0.059l-0.007,0.0050001
			c-0.0629997,0.0389996-0.125,0.0780001-0.1870003,0.1190004l-0.0289993,0.0120001l-0.0119991-0.0040007l-0.0079994-0.0050001
			L20.5210018-9.691l0.0009995-0.0170002l0.0209999-0.0389996L20.5480003-9.75l0.0009995-0.0050001l0.0039997-0.0030003
			l0.0030003-0.0050001c0.0849991-0.1210003,0.1410007-0.2589998,0.1650009-0.4049997v-0.0120001l0.0039997-0.0270004
			c0.0009995-0.0319996-0.0009995-0.0640001-0.0049992-0.0959997l-0.0030003-0.0120001l-0.0009995-0.0190001
			c-0.0100002-0.0550003-0.0279999-0.1079998-0.0559998-0.1569996l-0.0020008-0.0030003l-0.0030003-0.007
			c-0.0179996-0.0290003-0.0389996-0.0539999-0.0639992-0.0780001l-0.0060005-0.0030003l-0.0170002-0.0209999l-0.0060005-0.0030003
			c-0.0200005-0.0190001-0.0419998-0.0340004-0.066-0.0480003l-0.0060005-0.0019999l-0.0079994-0.007
			c-0.0230007-0.0100002-0.0450001-0.0190001-0.0690002-0.0270004l-0.0559998-0.0100002h-0.0090008l-0.0079994-0.0019999
			c-0.0359993-0.0019999-0.0720005,0-0.1079998,0.0039997l-0.066,0.0170002
			c-0.0349998,0.0170002-0.0680008,0.0360003-0.1009998,0.0559998c-0.0020008,0.0019999-0.0049992,0.0050001-0.0079994,0.0080004
			c-0.0030003,0.0019999-0.0060005,0.0019999-0.0100002,0.0039997c-0.0189991,0.0200005-0.0370007,0.0419998-0.0550003,0.0640001
			l-0.0030003,0.007l-0.0049992,0.0050001l-0.0039997,0.0050001l-0.0039997,0.0039997
			c-0.0489998,0.0690002-0.0760002,0.151-0.0809994,0.2360001l-0.0030003,0.0080004v0.0749998l0.0030003,0.0080004v0.0220003
			c0.0259991,0.1630001,0.0909996,0.3179998,0.184,0.4540005l0.0060005,0.0170002L20.0860023-9.684l-0.0039997,0.0100002h-0.0020008
			l-0.0060024,0.0039997l-0.0100002,0.0019999l-0.0139999-0.0039997c-0.0709991-0.0459995-0.1410007-0.0930004-0.2099991-0.1409998
			c-0.0489998-0.0220003-0.0990009-0.0410004-0.1499996-0.059l-0.0849991-0.0170002H19.592001l-0.0079994-0.0019999h-0.0569992
			c-0.0289993,0.0030003-0.059,0.0100002-0.0869999,0.0190001c-0.0419998,0.0190001-0.0820007,0.0430002-0.1189995,0.0710001
			l-0.0039997,0.0050001l-0.0070038,0.0029993l-0.0020008,0.0050001l-0.0060005,0.0030003
			c-0.0079994,0.0089998-0.0170002,0.0170002-0.0259991,0.026l-0.0049992,0.007l-0.0200005,0.0200005L19.25-9.7249994
			l-0.0049992,0.0030003l-0.0039997,0.007l-0.0030003,0.0019999l-0.0020008,0.0050001
			c-0.0440006,0.0679998-0.0720005,0.1470003-0.0809994,0.2270002v0.0229998l-0.0009995,0.007v0.0220003l0.0009995,0.0089998
			v0.0229998c0.0049992,0.0360003,0.0119991,0.0710001,0.0230007,0.1049995C19.2040005-9.217,19.2450008-9.1490002,19.2980022-9.092
			c0.0349998,0.0270004,0.0720005,0.0509996,0.1119995,0.0710001c0.0370007,0.0150003,0.0750008,0.026,0.1140003,0.0319996
			c0.0429993,0.0019999,0.0869999-0.0010004,0.1299992-0.007l0.0209999-0.0050001l0.0279999-0.0030003
			c0.0720005-0.0170002,0.1410007-0.0459995,0.2049999-0.0830002l0.0149994-0.0120001
			c0.0340004-0.0170002,0.0669994-0.0369997,0.0970001-0.0600004l0.0030003-0.0050001l0.0580006-0.0410004l0.0209999-0.0089998
			l0.0200005,0.0019999l0.0119991,0.007c0.0030003,0.0059996,0.0060005,0.0120001,0.0100002,0.0190001l0.0060005,0.026v0.0270004
			L20.1460018-9.125001c-0.0170002,0.2089996-0.0830002,0.4130001-0.1900005,0.5930004l-0.0039997,0.0050001l-0.0100002,0.0190001
			l-0.0030003,0.0019999L19.9370003-8.500001l-0.007,0.0090008C19.9250011-8.4829998,19.9200001-8.474,19.9139996-8.467
			l-0.0030003,0.0019999l-0.007,0.0139999c-0.0060005,0.007-0.0119991,0.0150003-0.0170002,0.0229998l-0.0020008,0.0050001
			l-0.0039997,0.0030003L19.8779984-8.415l-0.0020008,0.0030003c-0.007,0.0120001-0.0139999,0.0229998-0.0230007,0.0340004
			l-0.007,0.0080004L19.843996-8.3649988c-0.0230007,0.0299997-0.0489998,0.0579996-0.0760002,0.0830002l-0.0090008,0.0120001
			l-0.0060005,0.0030003c-0.0030003,0.0019999-0.0060005,0.0059996-0.0100002,0.0089998
			c-0.0049992,0.0059996-0.0100002,0.0120001-0.0170002,0.0170002l-0.0059948,0.0039978
			c-0.0020008,0.0019999-0.0049992,0.0050001-0.0060005,0.007l-0.0039997,0.0020008l-0.0060005,0.0030003l-0.0009995,0.0049992
			l-0.007,0.0030003l-0.0020008,0.0050001l-0.0039997,0.0030003l-0.0039997,0.0039997
			C19.6830006-8.2030001,19.6800003-8.2010002,19.677-8.1999998c-0.0020008,0.0019999-0.0049992,0.0050001-0.0060005,0.007
			l-0.007,0.0030003l-0.0039997,0.0080004c-0.0030003,0.0019999-0.0060005,0.0059996-0.0079994,0.0089998L19.6459999-8.171999
			l-0.0020008,0.0030003c-0.007,0.0050001-0.0139999,0.0120001-0.0209999,0.0170002L19.618-8.1489983l-0.0030003,0.0039997
			c-0.1509991,0.1070004-0.3220005,0.1830001-0.5049992,0.2119999h-0.0240002l-0.0090008,0.0019999h-0.0219994l-0.007,0.0029998
			H19.026001l-0.0240002,0.0050001h-0.0139999l-0.007,0.0029988h-0.0130005l-0.0090008,0.0019999h-0.0569992l-0.0100002-0.0019999
			h-0.0139999l-0.0219994-0.0050001h-0.0130005l-0.0259991-0.0050001h-0.0130005l-0.0079994-0.0019999h-0.0139999
			l-0.0240002-0.0050001h-0.0119991c-0.0459995-0.0089998-0.0909996-0.0190001-0.1369991-0.0310001l-0.0149994-0.007
			c-0.0680008-0.0209999-0.1329994-0.0500002-0.1949997-0.0860004l-0.0049992-0.0030003l-0.0150051-0.0059986
			c-0.0389996-0.0240002-0.0760002-0.0480003-0.1140003-0.073c-0.0160007-0.0120001-0.0310001-0.0240002-0.0470009-0.0369997
			l-0.0049992-0.0050001l-0.0130005-0.007c-0.0489998-0.0459995-0.0970001-0.0930004-0.1450005-0.1400003l-0.0030003-0.0080004
			l-0.0219975-0.0229998l-0.0020008-0.007c-0.0100002-0.0120001-0.0200005-0.026-0.0289993-0.0389996l-0.0049992-0.0030003
			c-0.007-0.0089998-0.0130005-0.0190001-0.0189991-0.0279999l-0.0039997-0.0019999L17.9699993-8.448l-0.0060005-0.007
			c-0.0319996-0.0530005-0.0620003-0.1059999-0.0919991-0.1590004l-0.0100002-0.0270004l-0.007-0.0089989
			c-0.052-0.1129999-0.0869999-0.2329998-0.1030006-0.3559999V-9.026l-0.0030003-0.0120001
			c-0.0009995-0.0159998-0.0009995-0.0310001-0.0009995-0.0459995l0.0049992-0.0279999l0.0060005-0.0120001l0.0060005-0.0050001
			l0.0149994-0.0050001l0.0139999,0.0010004c0.1149998,0.0740004,0.2409992,0.1300001,0.3729992,0.1660004l0.0289993,0.0019999
			l0.007,0.0030003h0.0310001c0.0499992-0.0059996,0.0979996-0.0170002,0.1469994-0.0319996
			c0.0230007-0.0100002,0.0459995-0.0229998,0.0680008-0.0349998l0.0030003-0.0030003l0.0230007-0.0150003l0.0020008-0.0030003
			c0.0020008-0.0019999,0.0049992-0.0050001,0.007-0.007l0.0049992-0.0019999
			c0.0030003-0.0030003,0.0060005-0.007,0.0100002-0.0100002c0.0039997-0.0019999,0.0079994-0.0050001,0.0119991-0.007
			l0.0380001-0.0419998l0.0009995-0.0050001l0.0079994-0.0089998l0.0030003-0.0050001l0.0049992-0.0050001
			c0.0060005-0.0150003,0.0149994-0.0279999,0.0249996-0.0410004c0.0170002-0.0360003,0.0310001-0.0749998,0.0419998-0.1129999
			l0.007-0.0480003v-0.0319996l0.0020008-0.0100002c0.0009995-0.0410004,0-0.0819998-0.0039997-0.1230001
			C18.633997-9.533,18.6279964-9.5579996,18.619997-9.5809994c-0.0119991-0.0240002-0.0230007-0.0480003-0.0349998-0.0719995
			c-0.0079994-0.0100002-0.0139999-0.0200005-0.0189991-0.0319996l-0.0009995-0.0030003
			c-0.0139999-0.0170002-0.0270004-0.0349998-0.0400009-0.0530005L18.520998-9.7429991l-0.0209999-0.0220003
			c-0.0020008-0.0019999-0.0049992-0.0030003-0.0079994-0.0050001L18.487999-9.7749996
			c-0.0100002-0.0100002-0.0200005-0.0190001-0.0319996-0.026l-0.0109997-0.0030003l-0.007-0.0059996
			c-0.0410004-0.0220003-0.0860004-0.0369997-0.1329994-0.0439997h-0.0230007l-0.0079994-0.0030003h-0.0529995l-0.0110016,0.0019999
			h-0.0249996C18.1239986-9.842,18.0639992-9.8239994,18.0059986-9.7989998
			C17.9939995-9.7909994,17.9819984-9.7839994,17.968998-9.776l-0.0049992,0.0019999
			c-0.0480003,0.0290003-0.0949993,0.0600004-0.1410007,0.0909996l-0.007,0.0030003l-0.0079994,0.0059996l-0.0259991,0.0100002
			h-0.0170002l-0.0100002-0.0039997L17.7509995-9.677v-0.0229998l0.007-0.0349998
			c0.0680008-0.1260004,0.1189995-0.2629995,0.1490002-0.4029999l0.0009995-0.026l0.0020008-0.0100002
			c0.0009995-0.0229998,0.0009995-0.0439997,0.0009995-0.0670004l-0.0009995-0.0080004v-0.0360003
			c-0.0119991-0.1049995-0.0559998-0.2030001-0.1270008-0.2819996l-0.0049992-0.0030003l-0.007-0.007l-0.0060005-0.0030003
			l-0.0020008-0.0019999l-0.0060005-0.0019999l-0.0049992-0.007l-0.0450001-0.0340004l-0.0109997-0.0030003l-0.0060005-0.0050001
			c-0.0289993-0.0129995-0.059-0.0270004-0.0879993-0.0410004l-0.0529995-0.0089998h-0.0139999l-0.0079994-0.0030003h-0.0429993
			l-0.0090008,0.0030003h-0.0170002l-0.0559998,0.0100002c-0.0419998,0.0170002-0.0820007,0.0369997-0.1219997,0.059
			c-0.0049992,0.0059996-0.0100002,0.0120001-0.0170002,0.0170002l-0.0020008,0.0010004l-0.0049992,0.0050001l-0.0020008,0.0030003
			c-0.0060005,0.0030003-0.0119991,0.0080004-0.0170002,0.0139999l-0.0109997,0.007L17.191-10.5280008l-0.0030003,0.0050001
			L17.184-10.5210009l-0.0009995,0.007l-0.0039997,0.0019999L17.177-10.5060015l-0.0030003,0.0030003
			c-0.0499992,0.0769997-0.0799999,0.165-0.0860004,0.257c0.0060005,0.1949997,0.0909996,0.3739996,0.1730003,0.5480003
			l-0.0009995,0.0150003l-0.0090008,0.0130005l-0.0090008,0.007l-0.0189991,0.0019999
			c-0.0240002-0.0089998-0.0459995-0.0200005-0.066-0.0340004l-0.0149994-0.0139999L17.1070004-9.729001l-0.0209999-0.0170002
			L17.078001-9.7490015c-0.0839996-0.0530005-0.177-0.0889997-0.2740002-0.1059999h-0.0640011
			c-0.0470009,0.0059996-0.0930004,0.0190001-0.1369991,0.0349998l-0.0489998,0.033L16.552-9.7840014l-0.0060005,0.0030003
			l-0.0030003,0.0039997l-0.0039997,0.0019999L16.532999-9.769002l-0.0049992,0.0019999l-0.0049992,0.0070019l-0.007,0.0019999
			L16.5100002-9.75l-0.0119991,0.0100002l-0.0009995,0.0019999c-0.0119991,0.0129995-0.0240002,0.0270004-0.0349998,0.0410004
			L16.460001-9.6949997c-0.0049992,0.0089998-0.0090008,0.0170002-0.0139999,0.026
			c-0.0020008,0.0019999-0.0039997,0.0059996-0.0060005,0.0089998l-0.0039997,0.0030003
			C16.4330006-9.6519995,16.4300003-9.6479998,16.427-9.6440001l-0.0030003,0.0030003L16.421999-9.6359997L16.4179993-9.632
			l-0.0189991,0.0319996c-0.007,0.0190001-0.0139999,0.0369997-0.0189991,0.0550003l-0.007,0.0459995v0.0190001
			l-0.0030003,0.0090008c-0.0060005,0.0860004,0.0060005,0.1719999,0.0359993,0.2530003
			C16.427-9.1669998,16.4570007-9.1209993,16.4950008-9.0809994L16.5-9.0799999l0.0109997,0.0120001
			c0.0219994,0.0170002,0.0440006,0.0340004,0.0669994,0.0509996c0.052,0.0240002,0.1070004,0.0419998,0.1639996,0.052h0.0240002
			l0.007,0.0030003h0.0189991l0.0060005-0.0030003h0.0230007c0.0849991-0.0129995,0.1690006-0.0410004,0.2460003-0.0819998
			L17.073-9.052c0.0209999-0.0120001,0.0440006-0.0240002,0.0650005-0.0349998
			C17.1620007-9.1079998,17.191-9.1239996,17.2210007-9.1329994l0.0230007,0.0010004l0.0100002,0.007l0.0109997,0.0150003
			l0.0060005,0.0270004v0.0459995l-0.0060005,0.0319996l-0.0039997,0.0100002
			c-0.0230007,0.1560001-0.0739994,0.3070002-0.1509991,0.4460001c-0.0209999,0.0319996-0.0410004,0.0670004-0.0599995,0.1009998
			l-0.0130024,0.0179987l-0.0030003,0.0019999l-0.0020008,0.0050001c-0.0410004,0.0570002-0.0860004,0.1090002-0.1359997,0.1590004
			l-0.0060005,0.0030003l-0.0109997,0.0089998L16.875-8.2489996C16.8719997-8.2459993,16.8689995-8.243,16.8659992-8.2399998
			l-0.0039997,0.0050001L16.855999-8.2329998l-0.0019989,0.0030003l-0.007,0.0050001l-0.0100002,0.0120001L16.8320007-8.21
			l-0.0060005,0.0059996l-0.0039997,0.0019999l-0.0100002,0.0100002l-0.0039997,0.0019999l-0.0109997,0.0150003
			l-0.0049992,0.0010004l-0.007,0.0089998c-0.0690002,0.0539999-0.1450005,0.1000004-0.2250004,0.1359997l-0.007,0.0059996
			c-0.1009998,0.0479999-0.2080002,0.0799999-0.3180008,0.0960002h-0.0139999l-0.0529995,0.0100002
			c-0.0869999,0.006-0.1750002,0.0029998-0.2609997-0.0100002h-0.0150003v-0.0079999h-0.0439997
			c-0.1689997-0.0339999-0.3260002-0.1110001-0.4619999-0.2150002c-0.0030003-0.0019999-0.0059996-0.0039997-0.0100002-0.0059996
			c-0.0030003-0.0030003-0.007-0.0080004-0.0109997-0.0120001L15.3420019-8.184l-0.0030003-0.0030003l-0.019002-0.0099993
			l-0.0019999-0.0030003l-0.0050001-0.0019999l-0.0010004-0.0019999c-0.026-0.0209999-0.0489998-0.0450001-0.0710001-0.0699997
			l-0.0039997-0.007L15.2329998-8.282999C15.2049999-8.3139992,15.1779995-8.3429995,15.151-8.3739986L15.1479998-8.381999
			l-0.0039997-0.0019999L15.1420002-8.388999l-0.0019999-0.0030003l-0.0030003-0.0080004
			c-0.0059996-0.0100002-0.0139999-0.0209999-0.0209999-0.0310001L15.1140003-8.434
			C15.1059999-8.4460001,15.099-8.4580002,15.0910006-8.4709997l-0.0030003-0.0010004
			c-0.0299997-0.0480003-0.059-0.0979996-0.0839996-0.1490002c-0.0550003-0.1160002-0.0939999-0.2410002-0.1140003-0.368v-0.0209999
			l-0.0030003-0.0100002c-0.0030003-0.026-0.0059996-0.052-0.0059996-0.0780001l-0.0019999-0.0100002V-9.118001l0.0019999-0.0080004
			v-0.0139999l0.0030003-0.0170002l0.0100002-0.0209999h0.0019999l0.0089998-0.0050001h0.0170002l0.0209999,0.0050001
			l0.0349998,0.0220003l0.0019999,0.0050001l0.0050001,0.0050001l0.0059996,0.0030003l0.0039997,0.0019999l0.0019999,0.0050001
			l0.0059996,0.0050001l0.0019999,0.0010004c0.0319996,0.0229998,0.066,0.0450001,0.1000004,0.066
			c0.059,0.0319996,0.1199999,0.0579996,0.184,0.0780001l0.0550003,0.0080004h0.0200005l0.0100002,0.0050001h0.0389996
			l0.0089998,0.0019999h0.0240002l0.0089998-0.0019999h0.0419998c0.0310001-0.0050001,0.0629997-0.0100002,0.0930004-0.0170002
			c0.0380001-0.0120001,0.0719995-0.0319996,0.1020002-0.059C15.7080002-9.059,15.7230005-9.0710001,15.7379999-9.0839996
			l0.0200005-0.0240002l0.0019999-0.0050001l0.0030003-0.0030003l0.0349998-0.0579996l0.0050001-0.0120001L15.809-9.1940002
			c0.0240002-0.0509996,0.0410004-0.1059999,0.0489998-0.1619997v-0.0640001l-0.0030003-0.0089998V-9.441h0.0059996
			l-0.0010004-0.0129995l-0.0099983-0.0100002l-0.0030003-0.0319996l-0.0039997-0.0139999L15.842-9.5519991
			c-0.0050001-0.0240002-0.0129995-0.0480003-0.0229998-0.0710001l-0.0380001-0.0670004l-0.0039997-0.0019999l-0.007-0.0130005
			L15.7640009-9.71L15.762001-9.7159996l-0.0050001-0.0050001l-0.0019999-0.0050001
			c-0.0100002-0.0089998-0.0179996-0.0190001-0.0249996-0.0299997l-0.0059996-0.0019999L15.703002-9.7819996l-0.0050001-0.0030003
			l-0.0059996-0.007l-0.0109997-0.0050001L15.6780024-9.802l-0.0250025-0.0179996
			C15.599-9.8439999,15.5419998-9.8629999,15.4840002-9.8730001c-0.0299997-0.0019999-0.059-0.0010004-0.0880003,0.0030003
			c-0.0760002,0.0190001-0.151,0.0450001-0.2220001,0.0780001c-0.0649996,0.0430002-0.1289997,0.0869999-0.1920004,0.132
			l-0.0190001,0.0100002l-0.0129995,0.0019999l-0.0059996-0.0010004l-0.0050001-0.007l-0.0010004-0.0050001v-0.0209999
			l0.0050001-0.0220003c0.0939999-0.1470003,0.1630001-0.316,0.1879997-0.4890003v-0.0489998
			c-0.0080004-0.0439997-0.0190001-0.0869999-0.0299997-0.1300001c-0.0150003-0.0430002-0.0340004-0.0830002-0.0570002-0.1230001
			c-0.0170002-0.0270004-0.0380001-0.052-0.0629997-0.0740004c-0.0229998-0.0190001-0.0459995-0.0380001-0.0699997-0.0559998
			L14.901-10.6280012l-0.007-0.0050001c-0.0349998-0.0159998-0.0710001-0.0299997-0.1079998-0.0410004l-0.0539999-0.0089998
			h-0.0489998c-0.0480003,0.0080004-0.0950003,0.0220003-0.1400003,0.0419998
			c-0.0299997,0.0190001-0.0570002,0.0380001-0.0839996,0.0600004l-0.0139999,0.0150003l-0.0059996,0.0019999l-0.0039997,0.0059996
			l-0.0059996,0.0050001l-0.0039997,0.0050001l-0.0059996,0.0050001l-0.0030003,0.0050001
			c-0.0050001,0.007-0.0109997,0.0139999-0.0170002,0.0200005l-0.0039997,0.0059996l-0.0019999,0.0059996l-0.0050001,0.0030003
			l-0.0030003,0.0059996c-0.0209999,0.0290003-0.0389996,0.0600004-0.0530005,0.0939999
			c-0.0150003,0.0419998-0.026,0.085-0.0319996,0.1300001v0.0170002l-0.0030003,0.0080004v0.0900002l0.0030003,0.0089998v0.0120001
			c0.0129995,0.0710001,0.033,0.1420002,0.0609999,0.2089996l0.0050001,0.007l0.0030003,0.0100002
			c0.0270004,0.0570002,0.0570002,0.1120005,0.092,0.165c0.0150003,0.0170002,0.0270004,0.0369997,0.0360003,0.0579996
			l0.0059996,0.0190001v0.0120001l-0.0050001,0.007l-0.0059996,0.0030003l-0.007,0.0010004l-0.026-0.0120001
			c-0.1120005-0.0900002-0.2419996-0.1520004-0.382-0.1820002h-0.0819998l-0.0120001-0.0050001l-0.0059996,0.0050001h-0.0760002
			c-0.0240002,0.0050001-0.0469999,0.0100002-0.0690002,0.0170002l-0.0459995,0.0240002l-0.007,0.007
			c-0.0410004,0.0270004-0.0769997,0.0600004-0.1090002,0.0959997l-0.0019999,0.007
			c-0.0459995,0.0579996-0.0749998,0.1260004-0.0869999,0.1999998c-0.0010004,0.0159998-0.0019999,0.0319996-0.0050001,0.0480003
			c-0.0030003,0.0579996,0,0.1160002,0.0120001,0.1730003c0.0170002,0.0489998,0.0380001,0.0970001,0.0640001,0.1420002
			l0.0050001,0.0050001l0.0019999,0.0059996l0.0059996,0.0059996l0.0030003,0.0039997l0.007,0.0080004l0.0050001,0.007
			c0.0170002,0.0170002,0.033,0.0340004,0.0500002,0.0509996l0.0059996,0.0030003l0.0019999,0.0030003l0.0360003,0.026
			l0.0570002,0.0270004c0.0439997,0.0139999,0.0889997,0.0240002,0.1359997,0.0299997h0.0539999
			c0.0830002-0.0159998,0.165-0.0410004,0.2419996-0.0749998l0.0439997-0.0290003l0.0019999-0.0019999l0.026-0.0170002
			l0.0030003-0.0030003c0.007-0.0050001,0.0159998-0.0100002,0.0240002-0.0150003l0.0039997-0.0059996l0.0159998-0.0100002
			l0.0039997-0.0050001l0.0109997-0.007l0.0019999-0.0019999l0.0059996-0.0050001
			c0.0050001-0.0050001,0.0100002-0.0100002,0.0159998-0.0150003l0.0030003-0.0050001l0.0050001-0.0019999
			c0.0039997-0.0030003,0.007-0.0059996,0.0100002-0.0100002c0.0080004-0.0059996,0.0159998-0.0120001,0.0240002-0.0190001
			l0.0159998-0.0089998l0.0159998-0.0050001h0.0139999l0.0139999,0.007
			c0.0050001,0.0120001,0.0080004,0.0229998,0.0109997,0.0340004c0,0.0419998-0.0019999,0.0839996-0.0080004,0.125
			l-0.0019999,0.0100002C14.5030003-8.8490009,14.4530001-8.6870012,14.375-8.5400009l-0.0050001,0.0130005
			c-0.0089998,0.0190001-0.0190001,0.0380001-0.0310001,0.0559998l-0.0030003,0.0100002l-0.0359993,0.0620003
			C14.2969999-8.3940001,14.2940006-8.3909998,14.29-8.3870001c-0.0019999,0.0030003-0.0030003,0.0059996-0.0050001,0.0100002
			L14.2819996-8.375l-0.0030003,0.007l-0.0059996,0.0050001l-0.0019999,0.0050001l-0.0059996,0.0050001l-0.0019999,0.0050001
			l-0.0030003,0.0029993l-0.0030003,0.007l-0.0059996,0.0080004l-0.0050001,0.0030003
			c-0.0349998,0.0459995-0.0719995,0.0889997-0.1129999,0.1300001C14.125-8.1889992,14.1170006-8.1819992,14.1090002-8.1749992
			C14.099-8.164999,14.0880003-8.1539993,14.0770006-8.1449995c-0.0030003,0.0019999-0.0050001,0.0030003-0.0080004,0.0050001
			l-0.0059996,0.007l-0.0060005,0.0029993L14.0539999-8.125l-0.0120001,0.007L14.04-8.1149998l-0.0050001,0.0030003
			l-0.0050001,0.0059996L14-8.0830002l-0.0019999,0.0019999c-0.0299997,0.0190001-0.059,0.0380001-0.0860004,0.059
			c-0.1120005,0.0630002-0.2349997,0.105-0.3620005,0.1230001h-0.0200005L13.520999-7.8970003h-0.0970001L13.414999-7.8980002
			H13.395999c-0.0959997-0.0149999-0.191-0.0380001-0.2819996-0.0689998c-0.0550003-0.0300002-0.1110001-0.0579996-0.1669998-0.085
			l-0.0139999-0.0100002L12.927-8.0630007L12.8839998-8.092001L12.882-8.0940008l-0.0120001-0.0059996l-0.0010004-0.0050001
			l-0.0059996-0.0049992l-0.0010004-0.0019999l-0.0139999-0.007l-0.0019999-0.0030003l-0.0059996-0.0019999l-0.0030003-0.0060005
			L12.8310003-8.132l-0.0019999-0.0030003l-0.0059996-0.0030003l-0.0039997-0.0050001l-0.0059996-0.0050001L12.8110018-8.151001
			l-0.0059996-0.0019999c-0.0059996-0.007-0.0129995-0.0129995-0.0200005-0.0190001l-0.005002-0.0019989l-0.0010004-0.0050001
			l-0.007-0.0030003l-0.0030003-0.0030003L12.763999-8.1870003C12.7429991-8.2070007,12.7219992-8.2280006,12.7029991-8.25
			l-0.0019999-0.007l-0.0170002-0.0170002L12.6800003-8.283L12.6719999-8.29l-0.0030003-0.0059996l-0.0100002-0.0080004
			l-0.0019999-0.007l-0.007-0.007l-0.0030003-0.007l-0.0080004-0.007l-0.0059996-0.0150003l-0.0089998-0.0050001
			l-0.0050001-0.0120001c-0.0939999-0.1440001-0.1619997-0.3039999-0.1920004-0.4729996v-0.0419998l0.0050001-0.0240002
			l0.0109997-0.0220003l0.0129995-0.0080004l0.0270004-0.007h0.0100002l0.0839996,0.0139999h0.0150003l0.0080013,0.000001
			C12.665-8.927,12.7290001-8.9389992,12.79-8.9629993c0.033-0.0190001,0.0649996-0.0389996,0.0939999-0.0629997l0.0489998-0.052
			l0.0030003-0.0050001c0.0050001-0.007,0.0100002-0.0129995,0.0159998-0.0190001l0.0039997-0.007l0.0050001-0.0030003
			c0.0030003-0.0059996,0.007-0.0129995,0.0100002-0.0190001l0.0050001-0.0019999l0.0109997-0.0209999l0.0019999-0.0019999
			c0.0050001-0.0139999,0.0129995-0.026,0.0209999-0.0380001c0.0200005-0.0500002,0.0349998-0.1020002,0.0419998-0.1560001
			v-0.0150003L13.0539989-9.375c-0.0059996-0.0970001-0.0349998-0.1929998-0.0839996-0.2779999L12.9649992-9.658
			l-0.0030003-0.0050001c-0.0159998-0.0229998-0.0340004-0.0439997-0.0550003-0.0629997l-0.0050001-0.0019999l-0.0100002-0.0139999
			l-0.0050001-0.0030003L12.8839998-9.75l-0.0059996-0.0030003l-0.0019999-0.0030003l-0.0060005-0.0029993l-0.0010004-0.0019999
			L12.8279991-9.79c-0.0279989-0.0159998-0.0569992-0.0279999-0.0879993-0.0369997l-0.0550003-0.0100002h-0.0949993
			c-0.0419998,0.007-0.0839996,0.0190001-0.1239996,0.0349998l-0.007,0.0059996L12.453001-9.7940006
			c-0.0220003,0.0150003-0.0430002,0.0310001-0.0649996,0.0459995l-0.0019999,0.0030003L12.380002-9.743001l-0.0050001,0.0059996
			l-0.0059996,0.0030003l-0.0039997,0.0039997l-0.0059996,0.0030003c-0.0129995,0.0120001-0.026,0.0240002-0.0369997,0.0369997
			l-0.005003,0.0100012l-0.0159998,0.0170002L12.2990007-9.658l-0.0019999,0.0030003
			C12.2550011-9.5789995,12.2210007-9.4980001,12.1950006-9.415l-0.0019999,0.0030003l-0.0030012,0.0059996l-0.0050001,0.0019999
			h-0.0149994L12.158-9.4160004c-0.0129995-0.026-0.0240002-0.0539999-0.0319996-0.0819998
			C12.085-9.7150002,12.0190001-9.927,11.9390001-10.1330004C11.901-10.217,11.8590002-10.2990007,11.8120003-10.3790007
			l-0.0059996-0.0050001l-0.0030003-0.0059996c-0.0380001-0.0469999-0.0799999-0.092-0.1230001-0.1350002l-0.0050001-0.0030003
			c-0.0030003-0.0030003-0.007-0.0059996-0.0109997-0.0100002c-0.059-0.0450001-0.1269999-0.0749998-0.1999998-0.0889997h-0.0120001
			l-0.0080004-0.0019999h-0.0939999l-0.0089998,0.0019999h-0.0089998l-0.0480003,0.0100002
			c-0.0340004,0.0139999-0.066,0.0310001-0.0959997,0.0509996c-0.0059996,0.0050001-0.0129995,0.0100002-0.0200005,0.0129995
			c-0.0050001,0.0039997-0.0089998,0.0089998-0.0120001,0.0139999l-0.0059996,0.0019999
			c-0.0159998,0.0129995-0.0310001,0.0270004-0.0450001,0.0419998c-0.0039997,0.0050001-0.0080004,0.0100002-0.0120001,0.0150003
			C11.0760002-10.4500017,11.0580006-10.420001,11.04-10.3900013c-0.0209999,0.0509996-0.0340004,0.1040001-0.0389996,0.1590004
			c0,0.0170002-0.0010004,0.0340004-0.0010004,0.052l0.0010004,0.0080004c0.0249996,0.3210001,0.2539997,0.6239996,0.415,0.8959999
			l0.0050001,0.0120001c0.0649996,0.118,0.1289997,0.2360001,0.1920004,0.3559999l0.0039997,0.0120001
			c0.033,0.0670004,0.066,0.1330004,0.099,0.1990004l0.0050001,0.0080004l0.0190001,0.0459995L11.7510004-8.625
			c0.0889997,0.1929998,0.177,0.3880005,0.2609997,0.5839996l0.0010004,0.0120001
			c0.0200005,0.046,0.0389996,0.0910001,0.0559998,0.1389999l0.0089998,0.0159998
			c0.2519999,0.632,0.3769999,1.2810001,0.4840002,1.9499998l0.0100002,0.0219998l0.0120001,0.0149999l0.0139999,0.0100002
			l0.0170002,0.0089998l0.0450001,0.007l9.6850004-0.0019999l0.007-0.0050001c0.0149994,0,0.0289993,0,0.0440006-0.0009999
			l0.0289993-0.007l0.0189991-0.0079999c0.0090008-0.0079999,0.0170002-0.0170002,0.0249996-0.026l0.0119991-0.0320001
			c0.0109997-0.0689998,0.0189991-0.1389999,0.0230007-0.21L22.507-6.164001c0.1159992-0.901,0.4179993-1.756,0.809-2.5730004
			l0.0060005-0.0200005l0.0060005-0.0089998c0.0289993-0.0570002,0.0569992-0.1140003,0.0849991-0.1719999l0.0100002-0.0159998
			c0.0060005-0.0190001,0.0149994-0.0349998,0.0259991-0.052l0.0039997-0.0120001
			c0.0189991-0.0310001,0.0349998-0.0629997,0.0489998-0.0959997c0.0119991-0.0200005,0.0230007-0.0410004,0.0340004-0.0609999
			l0.0030003-0.0089998c0.0410004-0.0749998,0.0820007-0.151,0.1240005-0.224l0.0039997-0.0120001
			c0.0510006-0.0900002,0.1019993-0.1800003,0.1520004-0.2700005L23.823-9.7000017
			c0.0389996-0.0600004,0.0750008-0.1219997,0.1070004-0.1859999l0.0020008-0.007l0.0119991-0.0170002
			c0.0489998-0.0970001,0.0760002-0.2049999,0.0790005-0.3140001l0.0020008-0.0089998v-0.0270004L24.0209999-10.2670002z
			 M14.7639999-6.7399998c-0.2939997,0-0.5340004-0.1570001-0.5340004-0.3509998c0-0.1919999,0.2390003-0.349,0.5340004-0.349
			c0.2930002,0,0.5299997,0.1570001,0.5299997,0.349C15.2939997-6.8969998,15.0570002-6.7399998,14.7639999-6.7399998z
			 M17.4990005-6.7399998c-0.2940006,0-0.5319996-0.1570001-0.5319996-0.3509998c0-0.1919999,0.2369995-0.349,0.5319996-0.349
			c0.2929993,0,0.5319996,0.1570001,0.5319996,0.349C18.0310001-6.8969998,17.7919998-6.7399998,17.4990005-6.7399998z
			 M20.2530003-6.7399998c-0.2940006,0-0.5319996-0.1570001-0.5319996-0.3509998c0-0.1919999,0.2380009-0.349,0.5319996-0.349
			c0.2929993,0,0.5319996,0.1570001,0.5319996,0.349C20.7849998-6.8969998,20.5459995-6.7399998,20.2530003-6.7399998z"/>
		<path class="st0" d="M12.4530001-11.4370003c0,0.276-0.1990004,0.5010004-0.4429998,0.5010004
			c-0.2440004,0-0.4429998-0.224-0.4429998-0.5010004c0-0.2740002,0.1990004-0.4989996,0.4429998-0.4989996
			C12.2550001-11.9359999,12.4530001-11.7110004,12.4530001-11.4370003"/>
		<path class="st0" d="M13.1829996-12.5620003c0,0.2440004-0.1789999,0.4440002-0.401,0.4440002s-0.401-0.2010002-0.401-0.4440002
			s0.1789999-0.4440002,0.401-0.4440002C13.0039997-13.007,13.1829996-12.8059998,13.1829996-12.5620003"/>
		<path class="st0" d="M14.1470003-13.3330002c0,0.2089996-0.1549997,0.3760004-0.3479996,0.3760004
			c-0.1920004,0-0.3459997-0.1669998-0.3459997-0.3760004s0.1549997-0.3780003,0.3459997-0.3780003
			C13.9919996-13.71,14.1470003-13.5410004,14.1470003-13.3330002"/>
		<path class="st0" d="M15.1379995-13.8699999c0,0.184-0.1300001,0.3299999-0.2910004,0.3299999
			s-0.2910004-0.1470003-0.2910004-0.3299999c0-0.1809998,0.1300001-0.3280001,0.2910004-0.3280001
			C15.007-14.198,15.1379995-14.0509996,15.1379995-13.8699999"/>
		<path class="st0" d="M16.1490002-14.007c0,0.1660004-0.1259995,0.3009996-0.2779999,0.3009996
			c-0.1549997,0-0.2799997-0.1350002-0.2799997-0.3009996c0-0.165,0.125-0.3000002,0.2799997-0.3000002
			C16.0230007-14.3070002,16.1490002-14.1719999,16.1490002-14.007"/>
		<path class="st0" d="M16.9699993-13.7950001c0,0.1450005-0.1110001,0.2600002-0.2420006,0.2600002
			c-0.1359997,0-0.2450008-0.1160002-0.2450008-0.2600002c0-0.1450005,0.1089993-0.2620001,0.2450008-0.2620001
			C16.8600006-14.0559998,16.9699993-13.9390001,16.9699993-13.7950001"/>
		<path class="st0" d="M16.3710003-13.1459999c0,0.1490002-0.1119995,0.2690001-0.2490005,0.2690001
			c-0.1389999,0-0.2510004-0.1199999-0.2510004-0.2690001c0-0.1479998,0.1129999-0.2679996,0.2510004-0.2679996
			C16.2590008-13.4139996,16.3710003-13.2939997,16.3710003-13.1459999"/>
		<path class="st0" d="M15.3240004-11.5039997c0,0.2480001-0.184,0.4510002-0.4110003,0.4510002
			c-0.2279997,0-0.4110003-0.2030001-0.4110003-0.4510002s0.184-0.4499998,0.4110003-0.4499998
			C15.1400003-11.9530001,15.3240004-11.7519999,15.3240004-11.5039997"/>
		<path class="st0" d="M17.9220009-11.5209999c0,0.2489996-0.184,0.448-0.4109993,0.448s-0.4099998-0.1990004-0.4099998-0.448
			c0-0.2480001,0.1830006-0.4510002,0.4099998-0.4510002S17.9220009-11.7690001,17.9220009-11.5209999"/>
		<path class="st0" d="M17.8239994-12.6569996c0,0.191-0.1399994,0.3450003-0.3139992,0.3450003
			c-0.1730003,0-0.3120003-0.1540003-0.3120003-0.3450003c0-0.1890001,0.1389999-0.3450003,0.3120003-0.3450003
			C17.6849995-13.0030003,17.8239994-12.8470001,17.8239994-12.6569996"/>
		<path class="st0" d="M17.7390003-13.5629997c0,0.1379995-0.1009998,0.2480001-0.2290001,0.2480001
			c-0.125,0-0.2280006-0.1110001-0.2280006-0.2480001c0-0.1420002,0.1030006-0.2530003,0.2280006-0.2530003
			C17.6380005-13.8149996,17.7390003-13.7049999,17.7390003-13.5629997"/>
		<path class="st0" d="M15.6850004-12.5129995c0,0.177-0.1339998,0.3190002-0.2980003,0.3190002
			c-0.1630001,0-0.2960005-0.1420002-0.2960005-0.3190002s0.1330004-0.3210001,0.2959995-0.3210001
			C15.5500002-12.835,15.6850004-12.6899996,15.6850004-12.5129995"/>
		<path class="st0" d="M22.5699997-11.4370003c0,0.276,0.1970005,0.5010004,0.4419994,0.5010004
			c0.2460003,0,0.4419994-0.224,0.4419994-0.5010004c0-0.2740002-0.1970005-0.4989996-0.4419994-0.4989996
			S22.5699997-11.7110004,22.5699997-11.4370003"/>
		<path class="st0" d="M21.8400002-12.5620003c0,0.2440004,0.1809998,0.4440002,0.4009991,0.4440002
			c0.2220001,0,0.4020004-0.2010002,0.4020004-0.4440002s-0.1800003-0.4440002-0.4020004-0.4440002
			C22.0209999-13.007,21.8400002-12.8059998,21.8400002-12.5620003"/>
		<path class="st0" d="M20.8770008-13.3330002c0,0.2089996,0.1550007,0.3760004,0.3460007,0.3760004
			c0.1919994,0,0.3460007-0.1669998,0.3460007-0.3760004s-0.1550007-0.3780003-0.3460007-0.3780003
			C21.0319996-13.71,20.8770008-13.5410004,20.8770008-13.3330002"/>
		<path class="st0" d="M19.8859997-13.8699999c0,0.184,0.1299992,0.3299999,0.2889996,0.3299999
			c0.1630001,0,0.2919998-0.1470003,0.2919998-0.3299999c0-0.1809998-0.1289997-0.3280001-0.2919998-0.3280001
			C20.0149994-14.198,19.8859997-14.0509996,19.8859997-13.8699999"/>
		<path class="st0" d="M18.8740005-14.007c0,0.1660004,0.125,0.3009996,0.2779999,0.3009996
			s0.2779999-0.1350002,0.2779999-0.3009996c0-0.165-0.1240005-0.3000002-0.2779999-0.3000002
			C18.9990005-14.3070002,18.8740005-14.1719999,18.8740005-14.007"/>
		<path class="st0" d="M18.052-13.7950001c0,0.1450005,0.1110001,0.2600002,0.2439995,0.2600002
			c0.1340008,0,0.243-0.1160002,0.243-0.2600002c0-0.1450005-0.1089993-0.2620001-0.243-0.2620001
			S18.052-13.9390001,18.052-13.7950001"/>
		<path class="st0" d="M18.6509991-13.1459999c0,0.1490002,0.1140003,0.2690001,0.2509995,0.2690001s0.25-0.1199999,0.25-0.2690001
			c0-0.1479998-0.1140003-0.2679996-0.25-0.2679996C18.7649994-13.4139996,18.6509991-13.2939997,18.6509991-13.1459999"/>
		<path class="st0" d="M19.7000008-11.5039997c0,0.2480001,0.1819992,0.4510002,0.4099998,0.4510002
			c0.2269993,0,0.4109993-0.2030001,0.4109993-0.4510002s-0.184-0.4499998-0.4109993-0.4499998
			C19.8829994-11.9530001,19.7000008-11.7519999,19.7000008-11.5039997"/>
		<path class="st0" d="M19.3390007-12.5129995c0,0.177,0.1329994,0.3190002,0.2970009,0.3190002
			c0.1639996,0,0.2970009-0.1420002,0.2970009-0.3190002s-0.1329994-0.3210001-0.2970009-0.3210001
			C19.4720001-12.835,19.3390007-12.6899996,19.3390007-12.5129995"/>
	</g>
</g>
<g id="Leaves_19_">
	<g>
		<path class="st0" d="M36.887001-6.1630001C36.8850021-6.0279999,36.7779999-5.9230003,36.6380005-5.921
			c-0.1399994-0.0019999-0.2459984-0.105-0.2490005-0.2420001c0-0.1350002,0.1080017-0.2389998,0.2490005-0.2389998
			C36.776001-6.402,36.8829994-6.2979999,36.887001-6.1630001"/>
		<path class="st0" d="M36.3720016-6.6220002C36.125-6.4510002,35.6710014-6.723,35.3980026-7.2120004
			c-0.3180008-0.5710001-0.2550011-1.4400001-0.2550011-1.4400001s0.7369995,0.3629999,1.0970001,0.8470001
			C36.6020012-7.323,36.6500015-6.8130002,36.3720016-6.6220002"/>
		<path class="st0" d="M34.5499992-7.3670001C34.2519989-7.3070002,33.8099976-7.711,33.6889992-8.2939997
			c-0.1230011-0.5839996,0.098999-1.5120001,0.098999-1.5120001S34.5899963-9.1110001,34.7829971-8.526
			C34.9790001-7.9400001,34.8460007-7.4429998,34.5499992-7.3670001"/>
		<path class="st0" d="M35.0610008-6.934c-0.0359993,0.0939999-0.1380005,0.1399999-0.2369995,0.1059999
			C34.7270012-6.862,34.6790009-6.961,34.7120018-7.0560002c0.0359993-0.0939999,0.1389999-0.1399999,0.2389984-0.1069999
			C35.0470009-7.1279998,35.0960007-7.0300002,35.0610008-6.934"/>
		<path class="st0" d="M32.9119987-8.4189997c-0.2910004,0-0.5099983-0.2679996-0.5099983-0.7720003
			c0-0.6119995,0.5200005-1.3310003,0.5200005-1.3310003s0.4939995,0.7360001,0.4939995,1.2550001
			S33.2050018-8.4189997,32.9119987-8.4189997"/>
		<path class="st0" d="M33.5359993-7.6209998c-0.0709991,0.0809999-0.1940002,0.092-0.2820015,0.0240002
			c-0.0839996-0.0700002-0.0960007-0.1869998-0.0250015-0.27c0.0750008-0.0799999,0.1949997-0.0910001,0.2830009-0.0229998
			C33.5960007-7.8200002,33.6069984-7.7049999,33.5359993-7.6209998"/>
		<path class="st0" d="M32.2480011-8.665c-0.0719986,0.0410004-0.1629982,0.0170002-0.2060013-0.052
			c-0.0390015-0.0699997-0.0139999-0.1540003,0.0579987-0.1949997c0.0750008-0.0389996,0.1619987-0.0190001,0.2039986,0.0509996
			C32.3450012-8.79,32.3219986-8.7069998,32.2480011-8.665"/>
		<path class="st0" d="M31.5400009-10.3940001c-0.1259995,0.0190001-0.2390003-0.0570002-0.2579994-0.177
			c-0.0149994-0.1199999,0.0680008-0.2290001,0.1949997-0.2510004c0.1270008-0.0200005,0.2369995,0.0539999,0.257,0.1759996
			C31.7490005-10.5279999,31.6650009-10.4169998,31.5400009-10.3940001"/>
		<path class="st0" d="M31.9580002-11.7340002c-0.125-0.0190001-0.2010002-0.1280003-0.177-0.2530003
			c0.0279999-0.125,0.1450005-0.2080002,0.2720013-0.1920004c0.125,0.0200005,0.2000008,0.1300001,0.1759987,0.2539997
			C32.2010002-11.8030005,32.0839996-11.7189999,31.9580002-11.7340002"/>
		<path class="st0" d="M32.8800011-7.5739999C32.7830009-7.27,32.4330025-7.132,31.9070015-7.3009996
			C31.2740021-7.5009995,30.6970024-8.283,30.6970024-8.283s0.9279995-0.2679996,1.4679985-0.0959997
			C32.7050018-8.2060003,32.9770012-7.8790002,32.8800011-7.5739999"/>
		<path class="st0" d="M34.3849983-6.8239999c0.0349998,0.283-0.230999,0.5279999-0.7789993,0.5840001
			c-0.6619987,0.0679998-1.5060005-0.362-1.5060005-0.362S32.8409996-7.1639996,33.4059982-7.224
			C33.9720001-7.2810001,34.3499985-7.1110001,34.3849983-6.8239999"/>
		<path class="st0" d="M35.776001-6.4650002c0.1090012,0.2280002-0.0429993,0.506-0.4840012,0.7069998
			c-0.5340004,0.2449999-1.3569984,0.125-1.3569984,0.125s0.4580002-0.6799998,0.9129982-0.888
			C35.3009987-6.7280002,35.6660004-6.6960001,35.776001-6.4650002"/>
		<path class="st0" d="M31.8430004-9.0229998c-0.1870003,0.1859999-0.5160007,0.1350002-0.8659992-0.2309999
			c-0.427-0.4420004-0.5939999-1.3000002-0.5939999-1.3000002s0.8299999,0.217,1.1919994,0.5959997
			C31.9379997-9.5830002,32.0309982-9.2119999,31.8430004-9.0229998"/>
		<path class="st0" d="M32.0719986-10.0380001c-0.1970005-0.0369997-0.2919998-0.2860003-0.1970005-0.7019997
			c0.1159992-0.5010004,0.6039982-1.0270004,0.6039982-1.0270004s0.1920013,0.6700001,0.0909996,1.0970001
			C32.4720001-10.2399998,32.269001-9.9989996,32.0719986-10.0380001"/>
		<path class="st0" d="M31.809-12.434c-0.1970005-0.007-0.3330002-0.2119999-0.3139992-0.5869999
			c0.0249996-0.4560003,0.4050007-0.9809999,0.4050007-0.9809999s0.3040009,0.5640001,0.2809982,0.9499998
			C32.1599998-12.665,32.0060005-12.4250002,31.809-12.434"/>
		<path class="st0" d="M32.3650017-12.5419998c-0.1110001-0.1020002-0.0789986-0.2959995,0.1399994-0.5170002
			c0.262001-0.2650003,0.7680016-0.4029999,0.7680016-0.4029999s-0.1310005,0.4940004-0.3549995,0.724
			C32.6940002-12.5100002,32.4780006-12.4420004,32.3650017-12.5419998"/>
		<path class="st0" d="M33.3330002-14.2290001c-0.0979996-0.0889997-0.0690002-0.2580004,0.118-0.4560003
			c0.2270012-0.2379999,0.6710014-0.3590002,0.6710014-0.3590002s-0.1119995,0.434-0.3059998,0.6359997
			C33.6220016-14.2030001,33.4309998-14.1420002,33.3330002-14.2290001"/>
		<path class="st0" d="M31.4309998-11.0579996c-0.2150002,0.0740004-0.4470005-0.0900002-0.5790005-0.5050001
			C30.6879997-12.0609999,30.8799992-12.783,30.8799992-12.783s0.5599995,0.4790001,0.6949997,0.9060001
			C31.7140007-11.4519997,31.6469994-11.1330004,31.4309998-11.0579996"/>
		<path class="st0" d="M32.4020004-13.4650002c-0.1660004-0.0799999-0.2050018-0.309-0.0439987-0.6260004
			c0.1940002-0.3809996,0.7220001-0.6899996,0.7220001-0.6899996s0.0460014,0.5970001-0.1199989,0.9259996
			C32.7949982-13.5299997,32.5699997-13.3809996,32.4020004-13.4650002"/>
		<path class="st0" d="M36.9029999-6.6220002c0.2470016,0.171,0.7010002-0.1009998,0.9729996-0.5900002
			c0.3180008-0.5710001,0.2550011-1.4400001,0.2550011-1.4400001s-0.7369995,0.3629999-1.0970001,0.8470001
			C36.6749992-7.323,36.625-6.8130002,36.9029999-6.6220002"/>
		<path class="st0" d="M38.7249985-7.3670001C39.0229988-7.3070002,39.4639969-7.711,39.5859985-8.2939997
			c0.1230011-0.5839996-0.098999-1.5120001-0.098999-1.5120001S38.6850014-9.1110001,38.4920006-8.526
			C38.2960014-7.9400001,38.4309998-7.4429998,38.7249985-7.3670001"/>
		<path class="st0" d="M38.2120018-6.934c0.0359993,0.0939999,0.1399994,0.1399999,0.2389984,0.1059999
			C38.5489998-6.862,38.5960007-6.961,38.5629997-7.0560002c-0.0359993-0.0939999-0.1389999-0.1399999-0.2389984-0.1069999
			C38.2280006-7.1279998,38.1800003-7.0300002,38.2120018-6.934"/>
		<path class="st0" d="M40.362999-8.4189997c0.2910004,0,0.5099983-0.2679996,0.5099983-0.7720003
			c0-0.6119995-0.5209999-1.3310003-0.5209999-1.3310003s-0.493,0.7360001-0.493,1.2550001
			C39.8590012-8.7480001,40.0690002-8.4189997,40.362999-8.4189997"/>
		<path class="st0" d="M39.7389984-7.6209998c0.0709991,0.0809999,0.1940002,0.092,0.2820015,0.0240002
			c0.0849991-0.0700002,0.0960007-0.1869998,0.0239983-0.27c-0.0740013-0.0799999-0.1940002-0.0910001-0.2820015-0.0229998
			C39.6769981-7.8200002,39.6669998-7.7049999,39.7389984-7.6209998"/>
		<path class="st0" d="M41.026001-8.665c0.0750008,0.0410004,0.1629982,0.0170002,0.2070007-0.052
			c0.0400009-0.0699997,0.0149994-0.1540003-0.0579987-0.1949997c-0.0730019-0.0389996-0.1609993-0.0190001-0.2039986,0.0509996
			C40.9300003-8.79,40.9550018-8.7069998,41.026001-8.665"/>
		<path class="st0" d="M41.7360001-10.3940001c0.1259995,0.0190001,0.2369995-0.0570002,0.2560005-0.177
			c0.0169983-0.1199999-0.0680008-0.2290001-0.1930008-0.2510004c-0.1269989-0.0200005-0.2369995,0.0539999-0.2550011,0.1759996
			C41.5250015-10.5279999,41.6100006-10.4169998,41.7360001-10.3940001"/>
		<path class="st0" d="M41.3170013-11.7340002c0.1240005-0.0190001,0.2010002-0.1280003,0.1769981-0.2530003
			c-0.0279999-0.125-0.1450005-0.2080002-0.2709999-0.1920004c-0.1269989,0.0200005-0.2010002,0.1300001-0.1769981,0.2539997
			C41.0730019-11.8030005,41.1889992-11.7189999,41.3170013-11.7340002"/>
		<path class="st0" d="M40.3950005-7.5739999C40.493-7.27,40.8419991-7.132,41.368-7.3009996
			C42.0009995-7.5009995,42.5789986-8.283,42.5789986-8.283s-0.9300003-0.2679996-1.4720001-0.0959997
			C40.5690002-8.2060003,40.2980003-7.8790002,40.3950005-7.5739999"/>
		<path class="st0" d="M38.8889999-6.8239999c-0.0349998,0.283,0.230999,0.5279999,0.7789993,0.5840001
			c0.6619987,0.0679998,1.5060005-0.362,1.5060005-0.362S40.4319992-7.1639996,39.868-7.224
			C39.3040009-7.2810001,38.9249992-7.1110001,38.8889999-6.8239999"/>
		<path class="st0" d="M37.4990005-6.4650002c-0.1090012,0.2280002,0.0429993,0.506,0.4840012,0.7069998
			c0.5340004,0.2449999,1.3590012,0.125,1.3590012,0.125s-0.4589996-0.6799998-0.9150009-0.888
			C37.973999-6.7280002,37.6080017-6.6960001,37.4990005-6.4650002"/>
		<path class="st0" d="M41.4319992-9.0229998c0.1870003,0.1859999,0.5159988,0.1350002,0.8670006-0.2309999
			c0.4259987-0.4420004,0.5929985-1.3000002,0.5929985-1.3000002s-0.8310013,0.217-1.1920013,0.5959997
			C41.3349991-9.5830002,41.243-9.2119999,41.4319992-9.0229998"/>
		<path class="st0" d="M41.2019997-10.0380001c0.1990013-0.0369997,0.2929993-0.2860003,0.1990013-0.7019997
			c-0.1160011-0.5010004-0.6040001-1.0270004-0.6040001-1.0270004s-0.1930008,0.6700001-0.0919991,1.0970001
			C40.8019981-10.2399998,41.0060005-9.9989996,41.2019997-10.0380001"/>
		<path class="st0" d="M41.4669991-12.434c0.1949997-0.007,0.3320007-0.2119999,0.3120003-0.5869999
			C41.7539978-13.4770002,41.375-14.0019999,41.375-14.0019999S41.0730019-13.4379997,41.0940018-13.052
			C41.1139984-12.665,41.269001-12.4250002,41.4669991-12.434"/>
		<path class="st0" d="M40.9090004-12.5419998c0.1119995-0.1020002,0.0779991-0.2959995-0.1389999-0.5170002
			c-0.262001-0.2650003-0.769001-0.4029999-0.769001-0.4029999s0.1310005,0.4940004,0.355999,0.724
			C40.5789986-12.5100002,40.7980003-12.4420004,40.9090004-12.5419998"/>
		<path class="st0" d="M39.9410019-14.2290001c0.0979996-0.0889997,0.0690002-0.2580004-0.118-0.4560003
			c-0.2280006-0.2379999-0.6720009-0.3590002-0.6720009-0.3590002s0.1119995,0.434,0.3059998,0.6359997
			C39.6520004-14.2030001,39.8419991-14.1420002,39.9410019-14.2290001"/>
		<path class="st0" d="M41.8450012-11.0579996c0.2150002,0.0740004,0.4469986-0.0900002,0.5789986-0.5050001
			C42.586998-12.0609999,42.3959999-12.783,42.3959999-12.783s-0.5579987,0.4790001-0.6949997,0.9060001
			C41.5610008-11.4519997,41.6279984-11.1330004,41.8450012-11.0579996"/>
		<path class="st0" d="M40.8720016-13.4650002c0.1660004-0.0799999,0.2050018-0.309,0.0460014-0.6260004
			c-0.1949997-0.3809996-0.7229996-0.6899996-0.7229996-0.6899996S40.1490021-14.184,40.3150024-13.8550005
			C40.4799995-13.5299997,40.7029991-13.3809996,40.8720016-13.4650002"/>
	</g>
</g>
<polygon class="st1" points="41.5289993,27.9950008 29.6089993,12.8509998 40.9679985,-2.293 31.5189991,-2.293 
	21.4629993,12.3889999 21.4629993,-2.293 13.5609999,-2.293 13.5609999,27.9950008 21.4629993,27.9950008 21.4629993,13.2889996 
	32.0810013,27.9950008 "/>
</svg>
